<svg width="32" height="32" viewBox="0 0 32 32" fill="none" xmlns="http://www.w3.org/2000/svg">
<rect width="32" height="32" fill="#020111"/>
<path d="M23.8125 9.79688L21.5156 11.9883C19.9531 10.3398 18.1953 9.51562 16.2422 9.51562C14.5938 9.51562 13.2031 10.0781 12.0703 11.2031C10.9453 12.3281 10.3828 13.7148 10.3828 15.3633C10.3828 16.5117 10.6328 17.5312 11.1328 18.4219C11.6328 19.3125 12.3398 20.0117 13.2539 20.5195C14.168 21.0273 15.1836 21.2812 16.3008 21.2812C17.2539 21.2812 18.125 21.1055 18.9141 20.7539C19.7031 20.3945 20.5703 19.7461 21.5156 18.8086L23.7422 21.1289C22.4688 22.3711 21.2656 23.2344 20.1328 23.7188C19 24.1953 17.707 24.4336 16.2539 24.4336C13.5742 24.4336 11.3789 23.5859 9.66797 21.8906C7.96484 20.1875 7.11328 18.0078 7.11328 15.3516C7.11328 13.6328 7.5 12.1055 8.27344 10.7695C9.05469 9.43359 10.168 8.35938 11.6133 7.54688C13.0664 6.73438 14.6289 6.32812 16.3008 6.32812C17.7227 6.32812 19.0898 6.62891 20.4023 7.23047C21.7227 7.83203 22.8594 8.6875 23.8125 9.79688Z" fill="white"/>
</svg>
