<svg width="15" height="18" viewBox="0 0 15 18" fill="none" xmlns="http://www.w3.org/2000/svg">
<path d="M12.4799 15.7503C12.4799 16.3679 12.3063 16.8979 11.9591 17.3384C11.612 17.7797 11.1958 18 10.7098 18H7.21032C5.75233 18 4.50639 17.3427 3.47176 16.0264C2.43685 14.7102 1.91992 13.126 1.91992 11.2714V2.25191C1.91992 1.61631 2.09227 1.08247 2.43685 0.649351C2.78143 0.216864 3.20236 0 3.69917 0C4.18155 0 4.59602 0.220914 4.94013 0.662239C5.28529 1.1031 5.45812 1.63204 5.45812 2.25034V5.5162H10.4404C10.8927 5.5162 11.2803 5.72078 11.6036 6.13028C11.9265 6.53906 12.0876 7.02969 12.0876 7.60263C12.0876 8.17447 11.9265 8.66595 11.6047 9.07507C11.2829 9.48363 10.8961 9.68856 10.4457 9.68856H5.45812V11.2693C5.45812 11.8892 5.62767 12.4156 5.96849 12.85C6.30892 13.2831 6.72226 13.4999 7.20855 13.4999H10.7091C11.1949 13.4999 11.6119 13.7211 11.9591 14.1622C12.3063 14.6035 12.4799 15.1329 12.4799 15.7503" fill="white"/>
</svg>
