<svg width="30" height="30" viewBox="0 0 30 30" fill="none" xmlns="http://www.w3.org/2000/svg">
<path d="M26 26.2504C26 27.2799 25.6384 28.1631 24.915 28.8973C24.1917 29.6328 23.3248 30 22.3122 30H15.0217C11.9842 30 9.38848 28.9044 7.233 26.7106C5.07693 24.517 4 21.8767 4 18.7856V3.75318C4 2.69385 4.35906 1.80411 5.07693 1.08225C5.79481 0.36144 6.67175 0 7.70678 0C8.71172 0 9.5752 0.36819 10.2921 1.10373C11.0112 1.83849 11.3712 2.72007 11.3712 3.75057V9.19366H21.751C22.6934 9.19366 23.5007 9.53464 24.1743 10.2171C24.847 10.8984 25.1826 11.7162 25.1826 12.6711C25.1826 13.6241 24.847 14.4432 24.1767 15.1251C23.5061 15.8061 22.7004 16.1476 21.762 16.1476H11.3712V18.7821C11.3712 19.8153 11.7245 20.6927 12.4345 21.4166C13.1437 22.1385 14.0049 22.4999 15.018 22.4999H22.3108C23.3228 22.4999 24.1917 22.8685 24.915 23.6037C25.6383 24.3392 26 25.2214 26 26.2505" fill="#00B2FF"/>
</svg>
