<svg width="138" height="30" viewBox="0 0 138 30" fill="none" xmlns="http://www.w3.org/2000/svg">
<path d="M43.0954 4.63707C42.8426 3.74074 42.3495 2.92359 41.6652 2.26701C40.9809 1.61044 40.1292 1.13733 39.1951 0.894828C35.775 0 22.0116 0 22.0116 0C22.0116 0 8.24775 0.0271552 4.82821 0.921983C3.89409 1.16453 3.0425 1.63765 2.35822 2.29422C1.67395 2.9508 1.18087 3.76792 0.928089 4.66422C-0.106372 10.4948 -0.507704 19.3787 0.956389 24.9758C1.20917 25.8721 1.70225 26.6892 2.38652 27.3458C3.0708 28.0023 3.92239 28.4755 4.85651 28.718C8.27632 29.6128 22.0399 29.6128 22.0399 29.6128C22.0399 29.6128 35.8035 29.6128 39.2234 28.718C40.1575 28.4755 41.0091 28.0023 41.6933 27.3458C42.3776 26.6892 42.8707 25.8721 43.1235 24.9758C44.2143 19.1372 44.5506 10.2587 43.0952 4.63733L43.0954 4.63707Z" fill="#FF0000"/>
<path d="M17.6309 21.152L29.0487 14.8065L17.6309 8.46069V21.152Z" fill="white"/>
<path d="M132.404 8.59669C133.901 8.59669 135.032 8.86772 135.823 9.3829C136.615 9.89833 137.18 10.7117 137.519 11.8238C137.858 12.9356 137.999 14.4539 137.999 16.4065V19.5795H130.736V20.5556L130.849 23.2403C130.934 23.8369 131.075 24.2709 131.301 24.5419C131.528 24.8132 131.895 24.9488 132.375 24.9488C133.026 24.9488 133.478 24.7049 133.704 24.2169C133.958 23.7286 134.071 22.915 134.099 21.8032L137.858 22.0201C137.886 22.1828 137.887 22.3998 137.887 22.6708C137.887 24.3793 137.406 25.654 136.417 26.4945C135.428 27.335 134.071 27.769 132.29 27.769C130.143 27.769 128.645 27.1183 127.797 25.8438C126.949 24.5691 126.497 22.5622 126.497 19.8777V16.5963C126.593 11.9864 127.438 8.61014 132.404 8.59669ZM80.147 8.94919V22.5353C80.147 23.3489 80.2316 23.9456 80.4295 24.2981C80.8308 25.0519 81.8709 24.8593 82.4361 24.4879C82.7624 24.2763 83.0254 23.9865 83.1992 23.6474V8.94893H87.5232V27.4706H84.1317L83.7644 25.1926H83.6797C82.7472 26.9011 81.362 27.7688 79.5252 27.7688C76.6978 27.762 76.0059 25.8074 75.8412 23.8222L75.8304 23.6823C75.8101 23.3816 75.7981 23.0805 75.7946 22.7792V8.94919H80.1467H80.147ZM102.446 8.94919V22.5353C102.446 23.3489 102.53 23.9456 102.728 24.2981C103.13 25.0519 104.17 24.8593 104.735 24.4879C105.061 24.2763 105.324 23.9865 105.498 23.6474V8.94893H109.822V27.4706H106.431L106.063 25.1926H105.979C105.046 26.9011 103.661 27.7688 101.824 27.7688C98.9967 27.762 98.3048 25.8074 98.1401 23.8222L98.1293 23.6823C98.109 23.3816 98.097 23.0805 98.0935 22.7792V8.94919H102.446ZM67.5984 8.59669C69.0116 8.59669 70.1703 8.86772 71.0182 9.43721C71.8659 10.0067 72.516 10.8746 72.9117 12.0676C73.3074 13.2609 73.5052 14.8607 73.5052 16.8405V19.525C73.5052 21.5047 73.3074 23.0776 72.9117 24.2707C72.516 25.4642 71.8942 26.3319 71.0182 26.9013C70.1423 27.4437 68.955 27.7419 67.4855 27.7419C65.9591 27.769 64.7721 27.4708 63.8961 26.9285C63.0202 26.359 62.3981 25.4911 62.031 24.2981C61.6633 23.1048 61.4938 21.5319 61.4938 19.5524V16.8674C61.4938 14.8876 61.6916 13.2607 62.1156 12.0674C62.5396 10.8472 63.1894 9.97928 64.094 9.43721C64.9983 8.89462 66.157 8.59643 67.5984 8.59643V8.59669ZM116.605 1.16626V10.9287H116.633C117.029 10.2237 117.538 9.65419 118.244 9.22022C118.904 8.79446 119.682 8.56785 120.477 8.56953C121.523 8.56953 122.314 8.84057 122.908 9.35574C123.501 9.89833 123.925 10.7388 124.179 11.905C124.426 13.0346 124.566 14.5969 124.575 16.5671L124.575 16.7593V19.6879C124.575 22.4267 124.208 24.4607 123.529 25.7624C122.823 27.064 121.749 27.715 120.279 27.715C119.46 27.715 118.725 27.5251 118.047 27.1726C117.447 26.8372 116.949 26.3563 116.605 25.7782L116.549 25.6809H116.464L116.012 27.4437H112.422V1.16652H116.605V1.16626ZM99.3085 2.1154V5.47773H95.0127V27.4706H90.7735V5.47798H86.4494V2.11566H99.3088L99.3085 2.1154ZM52.7041 2.1154L52.7068 2.12574C52.7481 2.30186 53.3195 4.73936 53.948 7.57928L53.9976 7.80428L54.0725 8.14436L54.1227 8.37272L54.1477 8.48729L54.1979 8.71695L54.2229 8.83204L54.2728 9.06247L54.3456 9.39945C54.7701 11.366 55.1752 13.3382 55.4175 14.7524H55.5307C55.7628 13.4838 56.1 11.8605 56.4595 10.203L56.5538 9.77005C56.6013 9.55333 56.6487 9.3366 56.6967 9.1204L56.7705 8.78497C57.2588 6.58846 57.7617 4.39497 58.2791 2.20462L58.2872 2.16971L58.3001 2.1154H62.6242L57.6217 19.227V27.4437H53.3542V19.2539H53.3259L48.38 2.11514H52.7041V2.1154ZM67.5135 11.471C66.92 11.471 66.5243 11.7694 66.2702 12.3932C66.0157 13.0168 65.9028 13.9659 65.9028 15.295V21.071C65.9028 22.4269 66.0157 23.4301 66.2419 24.027C66.468 24.6234 66.892 24.9219 67.5135 24.9219C68.107 24.9219 68.531 24.6234 68.7854 24.027C69.0399 23.4301 69.1528 22.4269 69.1528 21.071V15.2947C69.1528 13.9659 69.0396 12.9896 68.7854 12.393C68.531 11.7694 68.107 11.471 67.5135 11.471ZM117.368 12.0136C117.024 12.3188 116.779 12.6951 116.633 13.1655L116.605 13.2609V23.7826C116.956 24.3521 117.453 24.7318 118.329 24.7589C118.781 24.7589 119.148 24.5963 119.431 24.2709C119.714 23.9456 119.912 23.403 120.025 22.6437C120.133 21.9149 120.19 20.9109 120.194 19.6323V17.0575C120.194 15.5932 120.138 14.4813 120.053 13.6949C119.94 12.9084 119.799 12.3389 119.544 12.0136C119.052 11.3355 117.99 11.3438 117.368 12.0136ZM132.319 11.3898C131.839 11.4169 131.499 11.5525 131.301 11.7966C131.075 12.0676 130.934 12.4744 130.849 13.0711C130.766 13.6556 130.737 15.6987 130.736 15.7804V17.1118H133.901V15.9376V15.9601C133.9 16.3706 133.891 15.7219 133.871 14.9257L133.869 14.8186C133.851 14.1188 133.825 13.3385 133.789 13.0711C133.704 12.4473 133.562 12.0133 133.336 11.7694C133.11 11.5253 132.771 11.3898 132.319 11.3898H132.319Z" fill="white"/>
</svg>
