<svg width="503" height="68" viewBox="0 0 503 68" fill="none" xmlns="http://www.w3.org/2000/svg">
<g filter="url(#filter0_d_5:6)">
<path d="M54.0156 11.3086L48.082 16.9697C44.0456 12.7113 39.5046 10.582 34.459 10.582C30.2005 10.582 26.6081 12.0352 23.6816 14.9414C20.7754 17.8477 19.3223 21.43 19.3223 25.6885C19.3223 28.6553 19.9681 31.2891 21.2598 33.5898C22.5514 35.8906 24.3779 37.6969 26.7393 39.0088C29.1006 40.3206 31.7243 40.9766 34.6104 40.9766C37.0726 40.9766 39.3229 40.5225 41.3613 39.6143C43.3997 38.6859 45.64 37.0107 48.082 34.5889L53.834 40.583C50.5443 43.792 47.4362 46.0221 44.5098 47.2734C41.5833 48.5046 38.2432 49.1201 34.4893 49.1201C27.5667 49.1201 21.8955 46.9303 17.4756 42.5508C13.0758 38.151 10.876 32.5202 10.876 25.6582C10.876 21.2181 11.875 17.2725 13.873 13.8213C15.8913 10.3701 18.7673 7.59505 22.501 5.49609C26.2549 3.39714 30.2913 2.34766 34.6104 2.34766C38.2835 2.34766 41.8154 3.12467 45.2061 4.67871C48.6169 6.23275 51.5534 8.44271 54.0156 11.3086ZM82.5029 2.34766C88.7998 2.34766 94.2087 4.62826 98.7295 9.18945C103.271 13.7507 105.541 19.3109 105.541 25.8701C105.541 32.3688 103.301 37.8685 98.8203 42.3691C94.36 46.8698 88.9411 49.1201 82.5635 49.1201C75.8831 49.1201 70.333 46.8092 65.9131 42.1875C61.4932 37.5658 59.2832 32.0762 59.2832 25.7188C59.2832 21.4603 60.3125 17.5449 62.3711 13.9727C64.4297 10.4004 67.2552 7.57487 70.8477 5.49609C74.4603 3.39714 78.3454 2.34766 82.5029 2.34766ZM82.4121 10.6426C78.2949 10.6426 74.8337 12.0755 72.0283 14.9414C69.223 17.8073 67.8203 21.4502 67.8203 25.8701C67.8203 30.7946 69.5863 34.6898 73.1182 37.5557C75.863 39.7959 79.0114 40.916 82.5635 40.916C86.5798 40.916 90.0007 39.4629 92.8262 36.5566C95.6517 33.6504 97.0645 30.068 97.0645 25.8096C97.0645 21.5713 95.6416 17.9889 92.7959 15.0625C89.9502 12.1159 86.4889 10.6426 82.4121 10.6426ZM114.108 3.46777H123.1C128.024 3.46777 131.526 3.91178 133.604 4.7998C135.703 5.66764 137.389 7.12077 138.66 9.15918C139.932 11.1976 140.567 13.6094 140.567 16.3945C140.567 19.321 139.861 21.7731 138.448 23.751C137.056 25.7087 134.947 27.1921 132.121 28.2012L142.656 48H133.393L123.372 29.1396H122.585V48H114.108V3.46777ZM122.585 20.875H125.249C127.953 20.875 129.81 20.5218 130.819 19.8154C131.849 19.109 132.363 17.9385 132.363 16.3037C132.363 15.335 132.111 14.4974 131.606 13.791C131.102 13.0645 130.426 12.5498 129.578 12.2471C128.73 11.9242 127.176 11.7627 124.916 11.7627H122.585V20.875ZM149.528 3.46777H157.642L176.744 32.7725V3.46777H185.221V48H177.077L158.005 18.7861V48H149.528V3.46777ZM195.423 3.46777H219.732V11.7627H203.839V19.8154H219.732V27.959H203.839V39.6748H219.732V48H195.423V3.46777ZM228.239 3.46777H237.23C242.155 3.46777 245.657 3.91178 247.735 4.7998C249.834 5.66764 251.52 7.12077 252.791 9.15918C254.062 11.1976 254.698 13.6094 254.698 16.3945C254.698 19.321 253.992 21.7731 252.579 23.751C251.187 25.7087 249.077 27.1921 246.252 28.2012L256.787 48H247.523L237.503 29.1396H236.716V48H228.239V3.46777ZM236.716 20.875H239.38C242.084 20.875 243.941 20.5218 244.95 19.8154C245.979 19.109 246.494 17.9385 246.494 16.3037C246.494 15.335 246.242 14.4974 245.737 13.791C245.233 13.0645 244.557 12.5498 243.709 12.2471C242.861 11.9242 241.307 11.7627 239.047 11.7627H236.716V20.875ZM263.871 27.7471H279.25V35.4365H263.871V27.7471ZM313.005 9.52246L306.738 15.0625C304.538 11.9948 302.298 10.4609 300.018 10.4609C298.908 10.4609 297.999 10.7637 297.293 11.3691C296.587 11.9544 296.233 12.6204 296.233 13.3672C296.233 14.1139 296.486 14.8203 296.99 15.4863C297.676 16.3743 299.745 18.2816 303.196 21.208C306.425 23.9124 308.383 25.6178 309.069 26.3242C310.785 28.0599 311.996 29.7249 312.702 31.3193C313.429 32.8936 313.792 34.6191 313.792 36.4961C313.792 40.1491 312.531 43.1663 310.008 45.5479C307.485 47.9294 304.195 49.1201 300.139 49.1201C296.97 49.1201 294.205 48.3431 291.844 46.7891C289.503 45.235 287.494 42.793 285.819 39.4629L292.934 35.1641C295.073 39.0996 297.535 41.0674 300.32 41.0674C301.773 41.0674 302.994 40.6436 303.983 39.7959C304.972 38.9482 305.467 37.9694 305.467 36.8594C305.467 35.8503 305.093 34.8411 304.347 33.832C303.6 32.8229 301.955 31.279 299.412 29.2002C294.568 25.2445 291.44 22.1969 290.027 20.0576C288.615 17.8981 287.908 15.7487 287.908 13.6094C287.908 10.5215 289.079 7.8776 291.42 5.67773C293.781 3.45768 296.688 2.34766 300.139 2.34766C302.359 2.34766 304.468 2.8623 306.466 3.8916C308.484 4.9209 310.664 6.79785 313.005 9.52246ZM317.546 3.46777H342.158V11.8232H334.045V48H325.447V11.8232H317.546V3.46777ZM347.668 3.46777H356.175V32.2881C356.175 34.7705 356.387 36.5264 356.811 37.5557C357.255 38.585 357.971 39.4124 358.96 40.0381C359.969 40.6436 361.18 40.9463 362.593 40.9463C364.086 40.9463 365.368 40.6032 366.438 39.917C367.527 39.2308 368.274 38.363 368.678 37.3135C369.102 36.2438 369.313 34.2155 369.313 31.2285V3.46777H377.82V30.0176C377.82 34.498 377.568 37.6061 377.063 39.3418C376.559 41.0775 375.59 42.7526 374.157 44.3672C372.744 45.9818 371.11 47.1826 369.253 47.9697C367.396 48.7367 365.237 49.1201 362.774 49.1201C359.545 49.1201 356.73 48.3835 354.328 46.9102C351.947 45.4167 350.241 43.5599 349.212 41.3398C348.183 39.0996 347.668 35.3255 347.668 30.0176V3.46777ZM387.72 3.46777H397.771C404.249 3.46777 409.062 4.27507 412.211 5.88965C415.359 7.48405 417.953 10.0876 419.991 13.7002C422.03 17.3128 423.049 21.5309 423.049 26.3545C423.049 29.7855 422.474 32.944 421.323 35.8301C420.193 38.696 418.619 41.0775 416.601 42.9746C414.603 44.8717 412.433 46.1836 410.092 46.9102C407.751 47.6367 403.694 48 397.922 48H387.72V3.46777ZM396.166 11.6416V39.7051H400.102C403.977 39.7051 406.782 39.2611 408.518 38.373C410.273 37.485 411.706 35.9915 412.816 33.8926C413.926 31.7936 414.481 29.2103 414.481 26.1426C414.481 21.4199 413.16 17.7568 410.516 15.1533C408.134 12.8122 404.31 11.6416 399.042 11.6416H396.166ZM430.496 3.46777H438.912V48H430.496V3.46777ZM469.519 2.34766C475.815 2.34766 481.224 4.62826 485.745 9.18945C490.286 13.7507 492.557 19.3109 492.557 25.8701C492.557 32.3688 490.316 37.8685 485.836 42.3691C481.376 46.8698 475.957 49.1201 469.579 49.1201C462.899 49.1201 457.349 46.8092 452.929 42.1875C448.509 37.5658 446.299 32.0762 446.299 25.7188C446.299 21.4603 447.328 17.5449 449.387 13.9727C451.445 10.4004 454.271 7.57487 457.863 5.49609C461.476 3.39714 465.361 2.34766 469.519 2.34766ZM469.428 10.6426C465.311 10.6426 461.849 12.0755 459.044 14.9414C456.239 17.8073 454.836 21.4502 454.836 25.8701C454.836 30.7946 456.602 34.6898 460.134 37.5557C462.879 39.7959 466.027 40.916 469.579 40.916C473.595 40.916 477.016 39.4629 479.842 36.5566C482.667 33.6504 484.08 30.068 484.08 25.8096C484.08 21.5713 482.657 17.9889 479.812 15.0625C476.966 12.1159 473.505 10.6426 469.428 10.6426Z" fill="#00B2FF"/>
<path d="M54.0156 11.3086L48.082 16.9697C44.0456 12.7113 39.5046 10.582 34.459 10.582C30.2005 10.582 26.6081 12.0352 23.6816 14.9414C20.7754 17.8477 19.3223 21.43 19.3223 25.6885C19.3223 28.6553 19.9681 31.2891 21.2598 33.5898C22.5514 35.8906 24.3779 37.6969 26.7393 39.0088C29.1006 40.3206 31.7243 40.9766 34.6104 40.9766C37.0726 40.9766 39.3229 40.5225 41.3613 39.6143C43.3997 38.6859 45.64 37.0107 48.082 34.5889L53.834 40.583C50.5443 43.792 47.4362 46.0221 44.5098 47.2734C41.5833 48.5046 38.2432 49.1201 34.4893 49.1201C27.5667 49.1201 21.8955 46.9303 17.4756 42.5508C13.0758 38.151 10.876 32.5202 10.876 25.6582C10.876 21.2181 11.875 17.2725 13.873 13.8213C15.8913 10.3701 18.7673 7.59505 22.501 5.49609C26.2549 3.39714 30.2913 2.34766 34.6104 2.34766C38.2835 2.34766 41.8154 3.12467 45.2061 4.67871C48.6169 6.23275 51.5534 8.44271 54.0156 11.3086ZM82.5029 2.34766C88.7998 2.34766 94.2087 4.62826 98.7295 9.18945C103.271 13.7507 105.541 19.3109 105.541 25.8701C105.541 32.3688 103.301 37.8685 98.8203 42.3691C94.36 46.8698 88.9411 49.1201 82.5635 49.1201C75.8831 49.1201 70.333 46.8092 65.9131 42.1875C61.4932 37.5658 59.2832 32.0762 59.2832 25.7188C59.2832 21.4603 60.3125 17.5449 62.3711 13.9727C64.4297 10.4004 67.2552 7.57487 70.8477 5.49609C74.4603 3.39714 78.3454 2.34766 82.5029 2.34766ZM82.4121 10.6426C78.2949 10.6426 74.8337 12.0755 72.0283 14.9414C69.223 17.8073 67.8203 21.4502 67.8203 25.8701C67.8203 30.7946 69.5863 34.6898 73.1182 37.5557C75.863 39.7959 79.0114 40.916 82.5635 40.916C86.5798 40.916 90.0007 39.4629 92.8262 36.5566C95.6517 33.6504 97.0645 30.068 97.0645 25.8096C97.0645 21.5713 95.6416 17.9889 92.7959 15.0625C89.9502 12.1159 86.4889 10.6426 82.4121 10.6426ZM114.108 3.46777H123.1C128.024 3.46777 131.526 3.91178 133.604 4.7998C135.703 5.66764 137.389 7.12077 138.66 9.15918C139.932 11.1976 140.567 13.6094 140.567 16.3945C140.567 19.321 139.861 21.7731 138.448 23.751C137.056 25.7087 134.947 27.1921 132.121 28.2012L142.656 48H133.393L123.372 29.1396H122.585V48H114.108V3.46777ZM122.585 20.875H125.249C127.953 20.875 129.81 20.5218 130.819 19.8154C131.849 19.109 132.363 17.9385 132.363 16.3037C132.363 15.335 132.111 14.4974 131.606 13.791C131.102 13.0645 130.426 12.5498 129.578 12.2471C128.73 11.9242 127.176 11.7627 124.916 11.7627H122.585V20.875ZM149.528 3.46777H157.642L176.744 32.7725V3.46777H185.221V48H177.077L158.005 18.7861V48H149.528V3.46777ZM195.423 3.46777H219.732V11.7627H203.839V19.8154H219.732V27.959H203.839V39.6748H219.732V48H195.423V3.46777ZM228.239 3.46777H237.23C242.155 3.46777 245.657 3.91178 247.735 4.7998C249.834 5.66764 251.52 7.12077 252.791 9.15918C254.062 11.1976 254.698 13.6094 254.698 16.3945C254.698 19.321 253.992 21.7731 252.579 23.751C251.187 25.7087 249.077 27.1921 246.252 28.2012L256.787 48H247.523L237.503 29.1396H236.716V48H228.239V3.46777ZM236.716 20.875H239.38C242.084 20.875 243.941 20.5218 244.95 19.8154C245.979 19.109 246.494 17.9385 246.494 16.3037C246.494 15.335 246.242 14.4974 245.737 13.791C245.233 13.0645 244.557 12.5498 243.709 12.2471C242.861 11.9242 241.307 11.7627 239.047 11.7627H236.716V20.875ZM263.871 27.7471H279.25V35.4365H263.871V27.7471ZM313.005 9.52246L306.738 15.0625C304.538 11.9948 302.298 10.4609 300.018 10.4609C298.908 10.4609 297.999 10.7637 297.293 11.3691C296.587 11.9544 296.233 12.6204 296.233 13.3672C296.233 14.1139 296.486 14.8203 296.99 15.4863C297.676 16.3743 299.745 18.2816 303.196 21.208C306.425 23.9124 308.383 25.6178 309.069 26.3242C310.785 28.0599 311.996 29.7249 312.702 31.3193C313.429 32.8936 313.792 34.6191 313.792 36.4961C313.792 40.1491 312.531 43.1663 310.008 45.5479C307.485 47.9294 304.195 49.1201 300.139 49.1201C296.97 49.1201 294.205 48.3431 291.844 46.7891C289.503 45.235 287.494 42.793 285.819 39.4629L292.934 35.1641C295.073 39.0996 297.535 41.0674 300.32 41.0674C301.773 41.0674 302.994 40.6436 303.983 39.7959C304.972 38.9482 305.467 37.9694 305.467 36.8594C305.467 35.8503 305.093 34.8411 304.347 33.832C303.6 32.8229 301.955 31.279 299.412 29.2002C294.568 25.2445 291.44 22.1969 290.027 20.0576C288.615 17.8981 287.908 15.7487 287.908 13.6094C287.908 10.5215 289.079 7.8776 291.42 5.67773C293.781 3.45768 296.688 2.34766 300.139 2.34766C302.359 2.34766 304.468 2.8623 306.466 3.8916C308.484 4.9209 310.664 6.79785 313.005 9.52246ZM317.546 3.46777H342.158V11.8232H334.045V48H325.447V11.8232H317.546V3.46777ZM347.668 3.46777H356.175V32.2881C356.175 34.7705 356.387 36.5264 356.811 37.5557C357.255 38.585 357.971 39.4124 358.96 40.0381C359.969 40.6436 361.18 40.9463 362.593 40.9463C364.086 40.9463 365.368 40.6032 366.438 39.917C367.527 39.2308 368.274 38.363 368.678 37.3135C369.102 36.2438 369.313 34.2155 369.313 31.2285V3.46777H377.82V30.0176C377.82 34.498 377.568 37.6061 377.063 39.3418C376.559 41.0775 375.59 42.7526 374.157 44.3672C372.744 45.9818 371.11 47.1826 369.253 47.9697C367.396 48.7367 365.237 49.1201 362.774 49.1201C359.545 49.1201 356.73 48.3835 354.328 46.9102C351.947 45.4167 350.241 43.5599 349.212 41.3398C348.183 39.0996 347.668 35.3255 347.668 30.0176V3.46777ZM387.72 3.46777H397.771C404.249 3.46777 409.062 4.27507 412.211 5.88965C415.359 7.48405 417.953 10.0876 419.991 13.7002C422.03 17.3128 423.049 21.5309 423.049 26.3545C423.049 29.7855 422.474 32.944 421.323 35.8301C420.193 38.696 418.619 41.0775 416.601 42.9746C414.603 44.8717 412.433 46.1836 410.092 46.9102C407.751 47.6367 403.694 48 397.922 48H387.72V3.46777ZM396.166 11.6416V39.7051H400.102C403.977 39.7051 406.782 39.2611 408.518 38.373C410.273 37.485 411.706 35.9915 412.816 33.8926C413.926 31.7936 414.481 29.2103 414.481 26.1426C414.481 21.4199 413.16 17.7568 410.516 15.1533C408.134 12.8122 404.31 11.6416 399.042 11.6416H396.166ZM430.496 3.46777H438.912V48H430.496V3.46777ZM469.519 2.34766C475.815 2.34766 481.224 4.62826 485.745 9.18945C490.286 13.7507 492.557 19.3109 492.557 25.8701C492.557 32.3688 490.316 37.8685 485.836 42.3691C481.376 46.8698 475.957 49.1201 469.579 49.1201C462.899 49.1201 457.349 46.8092 452.929 42.1875C448.509 37.5658 446.299 32.0762 446.299 25.7188C446.299 21.4603 447.328 17.5449 449.387 13.9727C451.445 10.4004 454.271 7.57487 457.863 5.49609C461.476 3.39714 465.361 2.34766 469.519 2.34766ZM469.428 10.6426C465.311 10.6426 461.849 12.0755 459.044 14.9414C456.239 17.8073 454.836 21.4502 454.836 25.8701C454.836 30.7946 456.602 34.6898 460.134 37.5557C462.879 39.7959 466.027 40.916 469.579 40.916C473.595 40.916 477.016 39.4629 479.842 36.5566C482.667 33.6504 484.08 30.068 484.08 25.8096C484.08 21.5713 482.657 17.9889 479.812 15.0625C476.966 12.1159 473.505 10.6426 469.428 10.6426Z" fill="url(#paint0_linear_5:6)"/>
<path d="M54.0156 11.3086L48.082 16.9697C44.0456 12.7113 39.5046 10.582 34.459 10.582C30.2005 10.582 26.6081 12.0352 23.6816 14.9414C20.7754 17.8477 19.3223 21.43 19.3223 25.6885C19.3223 28.6553 19.9681 31.2891 21.2598 33.5898C22.5514 35.8906 24.3779 37.6969 26.7393 39.0088C29.1006 40.3206 31.7243 40.9766 34.6104 40.9766C37.0726 40.9766 39.3229 40.5225 41.3613 39.6143C43.3997 38.6859 45.64 37.0107 48.082 34.5889L53.834 40.583C50.5443 43.792 47.4362 46.0221 44.5098 47.2734C41.5833 48.5046 38.2432 49.1201 34.4893 49.1201C27.5667 49.1201 21.8955 46.9303 17.4756 42.5508C13.0758 38.151 10.876 32.5202 10.876 25.6582C10.876 21.2181 11.875 17.2725 13.873 13.8213C15.8913 10.3701 18.7673 7.59505 22.501 5.49609C26.2549 3.39714 30.2913 2.34766 34.6104 2.34766C38.2835 2.34766 41.8154 3.12467 45.2061 4.67871C48.6169 6.23275 51.5534 8.44271 54.0156 11.3086ZM82.5029 2.34766C88.7998 2.34766 94.2087 4.62826 98.7295 9.18945C103.271 13.7507 105.541 19.3109 105.541 25.8701C105.541 32.3688 103.301 37.8685 98.8203 42.3691C94.36 46.8698 88.9411 49.1201 82.5635 49.1201C75.8831 49.1201 70.333 46.8092 65.9131 42.1875C61.4932 37.5658 59.2832 32.0762 59.2832 25.7188C59.2832 21.4603 60.3125 17.5449 62.3711 13.9727C64.4297 10.4004 67.2552 7.57487 70.8477 5.49609C74.4603 3.39714 78.3454 2.34766 82.5029 2.34766ZM82.4121 10.6426C78.2949 10.6426 74.8337 12.0755 72.0283 14.9414C69.223 17.8073 67.8203 21.4502 67.8203 25.8701C67.8203 30.7946 69.5863 34.6898 73.1182 37.5557C75.863 39.7959 79.0114 40.916 82.5635 40.916C86.5798 40.916 90.0007 39.4629 92.8262 36.5566C95.6517 33.6504 97.0645 30.068 97.0645 25.8096C97.0645 21.5713 95.6416 17.9889 92.7959 15.0625C89.9502 12.1159 86.4889 10.6426 82.4121 10.6426ZM114.108 3.46777H123.1C128.024 3.46777 131.526 3.91178 133.604 4.7998C135.703 5.66764 137.389 7.12077 138.66 9.15918C139.932 11.1976 140.567 13.6094 140.567 16.3945C140.567 19.321 139.861 21.7731 138.448 23.751C137.056 25.7087 134.947 27.1921 132.121 28.2012L142.656 48H133.393L123.372 29.1396H122.585V48H114.108V3.46777ZM122.585 20.875H125.249C127.953 20.875 129.81 20.5218 130.819 19.8154C131.849 19.109 132.363 17.9385 132.363 16.3037C132.363 15.335 132.111 14.4974 131.606 13.791C131.102 13.0645 130.426 12.5498 129.578 12.2471C128.73 11.9242 127.176 11.7627 124.916 11.7627H122.585V20.875ZM149.528 3.46777H157.642L176.744 32.7725V3.46777H185.221V48H177.077L158.005 18.7861V48H149.528V3.46777ZM195.423 3.46777H219.732V11.7627H203.839V19.8154H219.732V27.959H203.839V39.6748H219.732V48H195.423V3.46777ZM228.239 3.46777H237.23C242.155 3.46777 245.657 3.91178 247.735 4.7998C249.834 5.66764 251.52 7.12077 252.791 9.15918C254.062 11.1976 254.698 13.6094 254.698 16.3945C254.698 19.321 253.992 21.7731 252.579 23.751C251.187 25.7087 249.077 27.1921 246.252 28.2012L256.787 48H247.523L237.503 29.1396H236.716V48H228.239V3.46777ZM236.716 20.875H239.38C242.084 20.875 243.941 20.5218 244.95 19.8154C245.979 19.109 246.494 17.9385 246.494 16.3037C246.494 15.335 246.242 14.4974 245.737 13.791C245.233 13.0645 244.557 12.5498 243.709 12.2471C242.861 11.9242 241.307 11.7627 239.047 11.7627H236.716V20.875ZM263.871 27.7471H279.25V35.4365H263.871V27.7471ZM313.005 9.52246L306.738 15.0625C304.538 11.9948 302.298 10.4609 300.018 10.4609C298.908 10.4609 297.999 10.7637 297.293 11.3691C296.587 11.9544 296.233 12.6204 296.233 13.3672C296.233 14.1139 296.486 14.8203 296.99 15.4863C297.676 16.3743 299.745 18.2816 303.196 21.208C306.425 23.9124 308.383 25.6178 309.069 26.3242C310.785 28.0599 311.996 29.7249 312.702 31.3193C313.429 32.8936 313.792 34.6191 313.792 36.4961C313.792 40.1491 312.531 43.1663 310.008 45.5479C307.485 47.9294 304.195 49.1201 300.139 49.1201C296.97 49.1201 294.205 48.3431 291.844 46.7891C289.503 45.235 287.494 42.793 285.819 39.4629L292.934 35.1641C295.073 39.0996 297.535 41.0674 300.32 41.0674C301.773 41.0674 302.994 40.6436 303.983 39.7959C304.972 38.9482 305.467 37.9694 305.467 36.8594C305.467 35.8503 305.093 34.8411 304.347 33.832C303.6 32.8229 301.955 31.279 299.412 29.2002C294.568 25.2445 291.44 22.1969 290.027 20.0576C288.615 17.8981 287.908 15.7487 287.908 13.6094C287.908 10.5215 289.079 7.8776 291.42 5.67773C293.781 3.45768 296.688 2.34766 300.139 2.34766C302.359 2.34766 304.468 2.8623 306.466 3.8916C308.484 4.9209 310.664 6.79785 313.005 9.52246ZM317.546 3.46777H342.158V11.8232H334.045V48H325.447V11.8232H317.546V3.46777ZM347.668 3.46777H356.175V32.2881C356.175 34.7705 356.387 36.5264 356.811 37.5557C357.255 38.585 357.971 39.4124 358.96 40.0381C359.969 40.6436 361.18 40.9463 362.593 40.9463C364.086 40.9463 365.368 40.6032 366.438 39.917C367.527 39.2308 368.274 38.363 368.678 37.3135C369.102 36.2438 369.313 34.2155 369.313 31.2285V3.46777H377.82V30.0176C377.82 34.498 377.568 37.6061 377.063 39.3418C376.559 41.0775 375.59 42.7526 374.157 44.3672C372.744 45.9818 371.11 47.1826 369.253 47.9697C367.396 48.7367 365.237 49.1201 362.774 49.1201C359.545 49.1201 356.73 48.3835 354.328 46.9102C351.947 45.4167 350.241 43.5599 349.212 41.3398C348.183 39.0996 347.668 35.3255 347.668 30.0176V3.46777ZM387.72 3.46777H397.771C404.249 3.46777 409.062 4.27507 412.211 5.88965C415.359 7.48405 417.953 10.0876 419.991 13.7002C422.03 17.3128 423.049 21.5309 423.049 26.3545C423.049 29.7855 422.474 32.944 421.323 35.8301C420.193 38.696 418.619 41.0775 416.601 42.9746C414.603 44.8717 412.433 46.1836 410.092 46.9102C407.751 47.6367 403.694 48 397.922 48H387.72V3.46777ZM396.166 11.6416V39.7051H400.102C403.977 39.7051 406.782 39.2611 408.518 38.373C410.273 37.485 411.706 35.9915 412.816 33.8926C413.926 31.7936 414.481 29.2103 414.481 26.1426C414.481 21.4199 413.16 17.7568 410.516 15.1533C408.134 12.8122 404.31 11.6416 399.042 11.6416H396.166ZM430.496 3.46777H438.912V48H430.496V3.46777ZM469.519 2.34766C475.815 2.34766 481.224 4.62826 485.745 9.18945C490.286 13.7507 492.557 19.3109 492.557 25.8701C492.557 32.3688 490.316 37.8685 485.836 42.3691C481.376 46.8698 475.957 49.1201 469.579 49.1201C462.899 49.1201 457.349 46.8092 452.929 42.1875C448.509 37.5658 446.299 32.0762 446.299 25.7188C446.299 21.4603 447.328 17.5449 449.387 13.9727C451.445 10.4004 454.271 7.57487 457.863 5.49609C461.476 3.39714 465.361 2.34766 469.519 2.34766ZM469.428 10.6426C465.311 10.6426 461.849 12.0755 459.044 14.9414C456.239 17.8073 454.836 21.4502 454.836 25.8701C454.836 30.7946 456.602 34.6898 460.134 37.5557C462.879 39.7959 466.027 40.916 469.579 40.916C473.595 40.916 477.016 39.4629 479.842 36.5566C482.667 33.6504 484.08 30.068 484.08 25.8096C484.08 21.5713 482.657 17.9889 479.812 15.0625C476.966 12.1159 473.505 10.6426 469.428 10.6426Z" fill="url(#paint1_linear_5:6)" fill-opacity="0.2"/>
</g>
<defs>
<filter id="filter0_d_5:6" x="0.875977" y="0.347656" width="501.681" height="66.7725" filterUnits="userSpaceOnUse" color-interpolation-filters="sRGB">
<feFlood flood-opacity="0" result="BackgroundImageFix"/>
<feColorMatrix in="SourceAlpha" type="matrix" values="0 0 0 0 0 0 0 0 0 0 0 0 0 0 0 0 0 0 127 0" result="hardAlpha"/>
<feOffset dy="8"/>
<feGaussianBlur stdDeviation="5"/>
<feColorMatrix type="matrix" values="0 0 0 0 0 0 0 0 0 0 0 0 0 0 0 0 0 0 0.5 0"/>
<feBlend mode="normal" in2="BackgroundImageFix" result="effect1_dropShadow_5:6"/>
<feBlend mode="normal" in="SourceGraphic" in2="effect1_dropShadow_5:6" result="shape"/>
</filter>
<linearGradient id="paint0_linear_5:6" x1="-13" y1="-58.5" x2="457" y2="92.9999" gradientUnits="userSpaceOnUse">
<stop offset="0.255208" stop-color="#EA6FEB"/>
<stop offset="1" stop-color="#EA7AF3" stop-opacity="0"/>
</linearGradient>
<linearGradient id="paint1_linear_5:6" x1="525" y1="59" x2="28.5" y2="-42" gradientUnits="userSpaceOnUse">
<stop stop-color="#0600FF"/>
<stop offset="1" stop-color="#0600FF" stop-opacity="0"/>
</linearGradient>
</defs>
</svg>
