<svg  viewBox="0 0 187 19" fill="none" xmlns="http://www.w3.org/2000/svg">
<path d="M16.8125 3.79688L14.5156 5.98828C12.9531 4.33984 11.1953 3.51562 9.24219 3.51562C7.59375 3.51562 6.20312 4.07812 5.07031 5.20312C3.94531 6.32812 3.38281 7.71484 3.38281 9.36328C3.38281 10.5117 3.63281 11.5312 4.13281 12.4219C4.63281 13.3125 5.33984 14.0117 6.25391 14.5195C7.16797 15.0273 8.18359 15.2812 9.30078 15.2812C10.2539 15.2812 11.125 15.1055 11.9141 14.7539C12.7031 14.3945 13.5703 13.7461 14.5156 12.8086L16.7422 15.1289C15.4688 16.3711 14.2656 17.2344 13.1328 17.7188C12 18.1953 10.707 18.4336 9.25391 18.4336C6.57422 18.4336 4.37891 17.5859 2.66797 15.8906C0.964844 14.1875 0.113281 12.0078 0.113281 9.35156C0.113281 7.63281 0.5 6.10547 1.27344 4.76953C2.05469 3.43359 3.16797 2.35938 4.61328 1.54688C6.06641 0.734375 7.62891 0.328125 9.30078 0.328125C10.7227 0.328125 12.0898 0.628906 13.4023 1.23047C14.7227 1.83203 15.8594 2.6875 16.8125 3.79688ZM27.8398 0.328125C30.2773 0.328125 32.3711 1.21094 34.1211 2.97656C35.8789 4.74219 36.7578 6.89453 36.7578 9.43359C36.7578 11.9492 35.8906 14.0781 34.1562 15.8203C32.4297 17.5625 30.332 18.4336 27.8633 18.4336C25.2773 18.4336 23.1289 17.5391 21.418 15.75C19.707 13.9609 18.8516 11.8359 18.8516 9.375C18.8516 7.72656 19.25 6.21094 20.0469 4.82812C20.8438 3.44531 21.9375 2.35156 23.3281 1.54688C24.7266 0.734375 26.2305 0.328125 27.8398 0.328125ZM27.8047 3.53906C26.2109 3.53906 24.8711 4.09375 23.7852 5.20312C22.6992 6.3125 22.1562 7.72266 22.1562 9.43359C22.1562 11.3398 22.8398 12.8477 24.207 13.957C25.2695 14.8242 26.4883 15.2578 27.8633 15.2578C29.418 15.2578 30.7422 14.6953 31.8359 13.5703C32.9297 12.4453 33.4766 11.0586 33.4766 9.41016C33.4766 7.76953 32.9258 6.38281 31.8242 5.25C30.7227 4.10938 29.3828 3.53906 27.8047 3.53906ZM40.0742 0.761719H43.5547C45.4609 0.761719 46.8164 0.933594 47.6211 1.27734C48.4336 1.61328 49.0859 2.17578 49.5781 2.96484C50.0703 3.75391 50.3164 4.6875 50.3164 5.76562C50.3164 6.89844 50.043 7.84766 49.4961 8.61328C48.957 9.37109 48.1406 9.94531 47.0469 10.3359L51.125 18H47.5391L43.6602 10.6992H43.3555V18H40.0742V0.761719ZM43.3555 7.5H44.3867C45.4336 7.5 46.1523 7.36328 46.543 7.08984C46.9414 6.81641 47.1406 6.36328 47.1406 5.73047C47.1406 5.35547 47.043 5.03125 46.8477 4.75781C46.6523 4.47656 46.3906 4.27734 46.0625 4.16016C45.7344 4.03516 45.1328 3.97266 44.2578 3.97266H43.3555V7.5ZM53.7852 0.761719H56.9258L64.3203 12.1055V0.761719H67.6016V18H64.4492L57.0664 6.69141V18H53.7852V0.761719ZM71.5508 0.761719H80.9609V3.97266H74.8086V7.08984H80.9609V10.2422H74.8086V14.7773H80.9609V18H71.5508V0.761719ZM84.2539 0.761719H87.7344C89.6406 0.761719 90.9961 0.933594 91.8008 1.27734C92.6133 1.61328 93.2656 2.17578 93.7578 2.96484C94.25 3.75391 94.4961 4.6875 94.4961 5.76562C94.4961 6.89844 94.2227 7.84766 93.6758 8.61328C93.1367 9.37109 92.3203 9.94531 91.2266 10.3359L95.3047 18H91.7188L87.8398 10.6992H87.5352V18H84.2539V0.761719ZM87.5352 7.5H88.5664C89.6133 7.5 90.332 7.36328 90.7227 7.08984C91.1211 6.81641 91.3203 6.36328 91.3203 5.73047C91.3203 5.35547 91.2227 5.03125 91.0273 4.75781C90.832 4.47656 90.5703 4.27734 90.2422 4.16016C89.9141 4.03516 89.3125 3.97266 88.4375 3.97266H87.5352V7.5ZM98.0469 10.1602H104V13.1367H98.0469V10.1602Z" fill="white"/>
<path d="M117.066 3.10547L114.641 5.25C113.789 4.0625 112.922 3.46875 112.039 3.46875C111.609 3.46875 111.258 3.58594 110.984 3.82031C110.711 4.04688 110.574 4.30469 110.574 4.59375C110.574 4.88281 110.672 5.15625 110.867 5.41406C111.133 5.75781 111.934 6.49609 113.27 7.62891C114.52 8.67578 115.277 9.33594 115.543 9.60938C116.207 10.2812 116.676 10.9258 116.949 11.543C117.23 12.1523 117.371 12.8203 117.371 13.5469C117.371 14.9609 116.883 16.1289 115.906 17.0508C114.93 17.9727 113.656 18.4336 112.086 18.4336C110.859 18.4336 109.789 18.1328 108.875 17.5312C107.969 16.9297 107.191 15.9844 106.543 14.6953L109.297 13.0312C110.125 14.5547 111.078 15.3164 112.156 15.3164C112.719 15.3164 113.191 15.1523 113.574 14.8242C113.957 14.4961 114.148 14.1172 114.148 13.6875C114.148 13.2969 114.004 12.9062 113.715 12.5156C113.426 12.125 112.789 11.5273 111.805 10.7227C109.93 9.19141 108.719 8.01172 108.172 7.18359C107.625 6.34766 107.352 5.51562 107.352 4.6875C107.352 3.49219 107.805 2.46875 108.711 1.61719C109.625 0.757813 110.75 0.328125 112.086 0.328125C112.945 0.328125 113.762 0.527344 114.535 0.925781C115.316 1.32422 116.16 2.05078 117.066 3.10547ZM118.824 0.761719H128.352V3.99609H125.211V18H121.883V3.99609H118.824V0.761719ZM130.484 0.761719H133.777V11.918C133.777 12.8789 133.859 13.5586 134.023 13.957C134.195 14.3555 134.473 14.6758 134.855 14.918C135.246 15.1523 135.715 15.2695 136.262 15.2695C136.84 15.2695 137.336 15.1367 137.75 14.8711C138.172 14.6055 138.461 14.2695 138.617 13.8633C138.781 13.4492 138.863 12.6641 138.863 11.5078V0.761719H142.156V11.0391C142.156 12.7734 142.059 13.9766 141.863 14.6484C141.668 15.3203 141.293 15.9688 140.738 16.5938C140.191 17.2188 139.559 17.6836 138.84 17.9883C138.121 18.2852 137.285 18.4336 136.332 18.4336C135.082 18.4336 133.992 18.1484 133.062 17.5781C132.141 17 131.48 16.2812 131.082 15.4219C130.684 14.5547 130.484 13.0938 130.484 11.0391V0.761719ZM145.988 0.761719H149.879C152.387 0.761719 154.25 1.07422 155.469 1.69922C156.688 2.31641 157.691 3.32422 158.48 4.72266C159.27 6.12109 159.664 7.75391 159.664 9.62109C159.664 10.9492 159.441 12.1719 158.996 13.2891C158.559 14.3984 157.949 15.3203 157.168 16.0547C156.395 16.7891 155.555 17.2969 154.648 17.5781C153.742 17.8594 152.172 18 149.938 18H145.988V0.761719ZM149.258 3.92578V14.7891H150.781C152.281 14.7891 153.367 14.6172 154.039 14.2734C154.719 13.9297 155.273 13.3516 155.703 12.5391C156.133 11.7266 156.348 10.7266 156.348 9.53906C156.348 7.71094 155.836 6.29297 154.812 5.28516C153.891 4.37891 152.41 3.92578 150.371 3.92578H149.258ZM162.547 0.761719H165.805V18H162.547V0.761719ZM177.652 0.328125C180.09 0.328125 182.184 1.21094 183.934 2.97656C185.691 4.74219 186.57 6.89453 186.57 9.43359C186.57 11.9492 185.703 14.0781 183.969 15.8203C182.242 17.5625 180.145 18.4336 177.676 18.4336C175.09 18.4336 172.941 17.5391 171.23 15.75C169.52 13.9609 168.664 11.8359 168.664 9.375C168.664 7.72656 169.062 6.21094 169.859 4.82812C170.656 3.44531 171.75 2.35156 173.141 1.54688C174.539 0.734375 176.043 0.328125 177.652 0.328125ZM177.617 3.53906C176.023 3.53906 174.684 4.09375 173.598 5.20312C172.512 6.3125 171.969 7.72266 171.969 9.43359C171.969 11.3398 172.652 12.8477 174.02 13.957C175.082 14.8242 176.301 15.2578 177.676 15.2578C179.23 15.2578 180.555 14.6953 181.648 13.5703C182.742 12.4453 183.289 11.0586 183.289 9.41016C183.289 7.76953 182.738 6.38281 181.637 5.25C180.535 4.10938 179.195 3.53906 177.617 3.53906Z" fill="#00B2FF"/>
</svg>
