<svg  viewBox="0 0 22 18" fill="none" xmlns="http://www.w3.org/2000/svg">
<path d="M20.9367 2.81862C20.8163 2.27379 20.5813 1.77709 20.2552 1.37799C19.929 0.978894 19.5232 0.691323 19.078 0.543916C17.4482 0 10.8894 0 10.8894 0C10.8894 0 4.33036 0.0165061 2.70081 0.560422C2.25566 0.707853 1.84984 0.995435 1.52376 1.39453C1.19767 1.79363 0.962699 2.29031 0.842239 2.83512C0.349275 6.37922 0.158024 11.7792 0.855725 15.1814C0.976185 15.7262 1.21116 16.2229 1.53724 16.622C1.86333 17.0211 2.26915 17.3087 2.71429 17.4561C4.34398 18 10.9029 18 10.9029 18C10.9029 18 17.4618 18 19.0915 17.4561C19.5367 17.3087 19.9425 17.0211 20.2686 16.622C20.5947 16.2229 20.8296 15.7262 20.9501 15.1814C21.4699 11.6324 21.6302 6.2357 20.9366 2.81877L20.9367 2.81862Z" fill="#FF0000"/>
<path d="M8.80176 12.8572L14.2429 9.00007L8.80176 5.14282V12.8572Z" fill="white"/>
</svg>
