<svg width="491" height="65" viewBox="0 0 491 65" fill="none" xmlns="http://www.w3.org/2000/svg">
<g clip-path="url(#clip0_935_25)">
<g filter="url(#filter0_d_935_25)">
<path d="M46.0156 11.3086L40.082 16.9697C36.0456 12.7113 31.5046 10.582 26.459 10.582C22.2005 10.582 18.6081 12.0352 15.6816 14.9414C12.7754 17.8477 11.3223 21.43 11.3223 25.6885C11.3223 28.6553 11.9681 31.2891 13.2598 33.5898C14.5514 35.8906 16.3779 37.6969 18.7393 39.0088C21.1006 40.3206 23.7243 40.9766 26.6104 40.9766C29.0726 40.9766 31.3229 40.5225 33.3613 39.6143C35.3997 38.6859 37.64 37.0107 40.082 34.5889L45.834 40.583C42.5443 43.792 39.4362 46.0221 36.5098 47.2734C33.5833 48.5046 30.2432 49.1201 26.4893 49.1201C19.5667 49.1201 13.8955 46.9303 9.47561 42.5508C5.07581 38.151 2.87601 32.5202 2.87601 25.6582C2.87601 21.2181 3.87501 17.2725 5.87301 13.8213C7.89131 10.3701 10.7673 7.59505 14.501 5.49609C18.2549 3.39714 22.2913 2.34766 26.6104 2.34766C30.2835 2.34766 33.8154 3.12467 37.2061 4.67871C40.6169 6.23275 43.5534 8.44271 46.0156 11.3086ZM74.5029 2.34766C80.7998 2.34766 86.2087 4.62826 90.7295 9.18945C95.271 13.7507 97.541 19.3109 97.541 25.8701C97.541 32.3688 95.301 37.8685 90.8203 42.3691C86.36 46.8698 80.9411 49.1201 74.5635 49.1201C67.8831 49.1201 62.333 46.8092 57.9131 42.1875C53.4932 37.5658 51.2832 32.0762 51.2832 25.7188C51.2832 21.4603 52.3125 17.5449 54.3711 13.9727C56.4297 10.4004 59.2552 7.57487 62.8477 5.49609C66.4603 3.39714 70.3454 2.34766 74.5029 2.34766ZM74.4121 10.6426C70.2949 10.6426 66.8337 12.0755 64.0283 14.9414C61.223 17.8073 59.8203 21.4502 59.8203 25.8701C59.8203 30.7946 61.5863 34.6898 65.1182 37.5557C67.863 39.7959 71.0114 40.916 74.5635 40.916C78.5798 40.916 82.0007 39.4629 84.8262 36.5566C87.6517 33.6504 89.0645 30.068 89.0645 25.8096C89.0645 21.5713 87.6416 17.9889 84.7959 15.0625C81.9502 12.1159 78.4889 10.6426 74.4121 10.6426ZM106.108 3.46777H115.1C120.024 3.46777 123.526 3.91178 125.604 4.7998C127.703 5.66764 129.389 7.12077 130.66 9.15918C131.932 11.1976 132.567 13.6094 132.567 16.3945C132.567 19.321 131.861 21.7731 130.448 23.751C129.056 25.7087 126.947 27.1921 124.121 28.2012L134.656 48H125.393L115.372 29.1396H114.585V48H106.108V3.46777ZM114.585 20.875H117.249C119.953 20.875 121.81 20.5218 122.819 19.8154C123.849 19.109 124.363 17.9385 124.363 16.3037C124.363 15.335 124.111 14.4974 123.606 13.791C123.102 13.0645 122.426 12.5498 121.578 12.2471C120.73 11.9242 119.176 11.7627 116.916 11.7627H114.585V20.875ZM141.528 3.46777H149.642L168.744 32.7725V3.46777H177.221V48H169.077L150.005 18.7861V48H141.528V3.46777ZM187.423 3.46777H211.732V11.7627H195.839V19.8154H211.732V27.959H195.839V39.6748H211.732V48H187.423V3.46777ZM220.239 3.46777H229.23C234.155 3.46777 237.657 3.91178 239.735 4.7998C241.834 5.66764 243.52 7.12077 244.791 9.15918C246.062 11.1976 246.698 13.6094 246.698 16.3945C246.698 19.321 245.992 21.7731 244.579 23.751C243.187 25.7087 241.077 27.1921 238.252 28.2012L248.787 48H239.523L229.503 29.1396H228.716V48H220.239V3.46777ZM228.716 20.875H231.38C234.084 20.875 235.941 20.5218 236.95 19.8154C237.979 19.109 238.494 17.9385 238.494 16.3037C238.494 15.335 238.242 14.4974 237.737 13.791C237.233 13.0645 236.557 12.5498 235.709 12.2471C234.861 11.9242 233.307 11.7627 231.047 11.7627H228.716V20.875ZM255.871 27.7471H271.25V35.4365H255.871V27.7471ZM305.005 9.52246L298.738 15.0625C296.538 11.9948 294.298 10.4609 292.018 10.4609C290.908 10.4609 289.999 10.7637 289.293 11.3691C288.587 11.9544 288.233 12.6204 288.233 13.3672C288.233 14.1139 288.486 14.8203 288.99 15.4863C289.676 16.3743 291.745 18.2816 295.196 21.208C298.425 23.9124 300.383 25.6178 301.069 26.3242C302.785 28.0599 303.996 29.7249 304.702 31.3193C305.429 32.8936 305.792 34.6191 305.792 36.4961C305.792 40.1491 304.531 43.1663 302.008 45.5479C299.485 47.9294 296.195 49.1201 292.139 49.1201C288.97 49.1201 286.205 48.3431 283.844 46.7891C281.503 45.235 279.494 42.793 277.819 39.4629L284.934 35.1641C287.073 39.0996 289.535 41.0674 292.32 41.0674C293.773 41.0674 294.994 40.6436 295.983 39.7959C296.972 38.9482 297.467 37.9694 297.467 36.8594C297.467 35.8503 297.093 34.8411 296.347 33.832C295.6 32.8229 293.955 31.279 291.412 29.2002C286.568 25.2445 283.44 22.1969 282.027 20.0576C280.615 17.8981 279.908 15.7487 279.908 13.6094C279.908 10.5215 281.079 7.8776 283.42 5.67773C285.781 3.45768 288.688 2.34766 292.139 2.34766C294.359 2.34766 296.468 2.8623 298.466 3.8916C300.484 4.9209 302.664 6.79785 305.005 9.52246ZM309.546 3.46777H334.158V11.8232H326.045V48H317.447V11.8232H309.546V3.46777ZM339.668 3.46777H348.175V32.2881C348.175 34.7705 348.387 36.5264 348.811 37.5557C349.255 38.585 349.971 39.4124 350.96 40.0381C351.969 40.6436 353.18 40.9463 354.593 40.9463C356.086 40.9463 357.368 40.6032 358.438 39.917C359.527 39.2308 360.274 38.363 360.678 37.3135C361.102 36.2438 361.313 34.2155 361.313 31.2285V3.46777H369.82V30.0176C369.82 34.498 369.568 37.6061 369.063 39.3418C368.559 41.0775 367.59 42.7526 366.157 44.3672C364.744 45.9818 363.11 47.1826 361.253 47.9697C359.396 48.7367 357.237 49.1201 354.774 49.1201C351.545 49.1201 348.73 48.3835 346.328 46.9102C343.947 45.4167 342.241 43.5599 341.212 41.3398C340.183 39.0996 339.668 35.3255 339.668 30.0176V3.46777ZM379.72 3.46777H389.771C396.249 3.46777 401.062 4.27507 404.211 5.88965C407.359 7.48405 409.953 10.0876 411.991 13.7002C414.03 17.3128 415.049 21.5309 415.049 26.3545C415.049 29.7855 414.474 32.944 413.323 35.8301C412.193 38.696 410.619 41.0775 408.601 42.9746C406.603 44.8717 404.433 46.1836 402.092 46.9102C399.751 47.6367 395.694 48 389.922 48H379.72V3.46777ZM388.166 11.6416V39.7051H392.102C395.977 39.7051 398.782 39.2611 400.518 38.373C402.273 37.485 403.706 35.9915 404.816 33.8926C405.926 31.7936 406.481 29.2103 406.481 26.1426C406.481 21.4199 405.16 17.7568 402.516 15.1533C400.134 12.8122 396.31 11.6416 391.042 11.6416H388.166ZM422.496 3.46777H430.912V48H422.496V3.46777ZM461.519 2.34766C467.815 2.34766 473.224 4.62826 477.745 9.18945C482.286 13.7507 484.557 19.3109 484.557 25.8701C484.557 32.3688 482.316 37.8685 477.836 42.3691C473.376 46.8698 467.957 49.1201 461.579 49.1201C454.899 49.1201 449.349 46.8092 444.929 42.1875C440.509 37.5658 438.299 32.0762 438.299 25.7188C438.299 21.4603 439.328 17.5449 441.387 13.9727C443.445 10.4004 446.271 7.57487 449.863 5.49609C453.476 3.39714 457.361 2.34766 461.519 2.34766ZM461.428 10.6426C457.311 10.6426 453.849 12.0755 451.044 14.9414C448.239 17.8073 446.836 21.4502 446.836 25.8701C446.836 30.7946 448.602 34.6898 452.134 37.5557C454.879 39.7959 458.027 40.916 461.579 40.916C465.595 40.916 469.016 39.4629 471.842 36.5566C474.667 33.6504 476.08 30.068 476.08 25.8096C476.08 21.5713 474.657 17.9889 471.812 15.0625C468.966 12.1159 465.505 10.6426 461.428 10.6426Z" fill="#00B2FF"/>
<path d="M46.0156 11.3086L40.082 16.9697C36.0456 12.7113 31.5046 10.582 26.459 10.582C22.2005 10.582 18.6081 12.0352 15.6816 14.9414C12.7754 17.8477 11.3223 21.43 11.3223 25.6885C11.3223 28.6553 11.9681 31.2891 13.2598 33.5898C14.5514 35.8906 16.3779 37.6969 18.7393 39.0088C21.1006 40.3206 23.7243 40.9766 26.6104 40.9766C29.0726 40.9766 31.3229 40.5225 33.3613 39.6143C35.3997 38.6859 37.64 37.0107 40.082 34.5889L45.834 40.583C42.5443 43.792 39.4362 46.0221 36.5098 47.2734C33.5833 48.5046 30.2432 49.1201 26.4893 49.1201C19.5667 49.1201 13.8955 46.9303 9.47561 42.5508C5.07581 38.151 2.87601 32.5202 2.87601 25.6582C2.87601 21.2181 3.87501 17.2725 5.87301 13.8213C7.89131 10.3701 10.7673 7.59505 14.501 5.49609C18.2549 3.39714 22.2913 2.34766 26.6104 2.34766C30.2835 2.34766 33.8154 3.12467 37.2061 4.67871C40.6169 6.23275 43.5534 8.44271 46.0156 11.3086ZM74.5029 2.34766C80.7998 2.34766 86.2087 4.62826 90.7295 9.18945C95.271 13.7507 97.541 19.3109 97.541 25.8701C97.541 32.3688 95.301 37.8685 90.8203 42.3691C86.36 46.8698 80.9411 49.1201 74.5635 49.1201C67.8831 49.1201 62.333 46.8092 57.9131 42.1875C53.4932 37.5658 51.2832 32.0762 51.2832 25.7188C51.2832 21.4603 52.3125 17.5449 54.3711 13.9727C56.4297 10.4004 59.2552 7.57487 62.8477 5.49609C66.4603 3.39714 70.3454 2.34766 74.5029 2.34766ZM74.4121 10.6426C70.2949 10.6426 66.8337 12.0755 64.0283 14.9414C61.223 17.8073 59.8203 21.4502 59.8203 25.8701C59.8203 30.7946 61.5863 34.6898 65.1182 37.5557C67.863 39.7959 71.0114 40.916 74.5635 40.916C78.5798 40.916 82.0007 39.4629 84.8262 36.5566C87.6517 33.6504 89.0645 30.068 89.0645 25.8096C89.0645 21.5713 87.6416 17.9889 84.7959 15.0625C81.9502 12.1159 78.4889 10.6426 74.4121 10.6426ZM106.108 3.46777H115.1C120.024 3.46777 123.526 3.91178 125.604 4.7998C127.703 5.66764 129.389 7.12077 130.66 9.15918C131.932 11.1976 132.567 13.6094 132.567 16.3945C132.567 19.321 131.861 21.7731 130.448 23.751C129.056 25.7087 126.947 27.1921 124.121 28.2012L134.656 48H125.393L115.372 29.1396H114.585V48H106.108V3.46777ZM114.585 20.875H117.249C119.953 20.875 121.81 20.5218 122.819 19.8154C123.849 19.109 124.363 17.9385 124.363 16.3037C124.363 15.335 124.111 14.4974 123.606 13.791C123.102 13.0645 122.426 12.5498 121.578 12.2471C120.73 11.9242 119.176 11.7627 116.916 11.7627H114.585V20.875ZM141.528 3.46777H149.642L168.744 32.7725V3.46777H177.221V48H169.077L150.005 18.7861V48H141.528V3.46777ZM187.423 3.46777H211.732V11.7627H195.839V19.8154H211.732V27.959H195.839V39.6748H211.732V48H187.423V3.46777ZM220.239 3.46777H229.23C234.155 3.46777 237.657 3.91178 239.735 4.7998C241.834 5.66764 243.52 7.12077 244.791 9.15918C246.062 11.1976 246.698 13.6094 246.698 16.3945C246.698 19.321 245.992 21.7731 244.579 23.751C243.187 25.7087 241.077 27.1921 238.252 28.2012L248.787 48H239.523L229.503 29.1396H228.716V48H220.239V3.46777ZM228.716 20.875H231.38C234.084 20.875 235.941 20.5218 236.95 19.8154C237.979 19.109 238.494 17.9385 238.494 16.3037C238.494 15.335 238.242 14.4974 237.737 13.791C237.233 13.0645 236.557 12.5498 235.709 12.2471C234.861 11.9242 233.307 11.7627 231.047 11.7627H228.716V20.875ZM255.871 27.7471H271.25V35.4365H255.871V27.7471ZM305.005 9.52246L298.738 15.0625C296.538 11.9948 294.298 10.4609 292.018 10.4609C290.908 10.4609 289.999 10.7637 289.293 11.3691C288.587 11.9544 288.233 12.6204 288.233 13.3672C288.233 14.1139 288.486 14.8203 288.99 15.4863C289.676 16.3743 291.745 18.2816 295.196 21.208C298.425 23.9124 300.383 25.6178 301.069 26.3242C302.785 28.0599 303.996 29.7249 304.702 31.3193C305.429 32.8936 305.792 34.6191 305.792 36.4961C305.792 40.1491 304.531 43.1663 302.008 45.5479C299.485 47.9294 296.195 49.1201 292.139 49.1201C288.97 49.1201 286.205 48.3431 283.844 46.7891C281.503 45.235 279.494 42.793 277.819 39.4629L284.934 35.1641C287.073 39.0996 289.535 41.0674 292.32 41.0674C293.773 41.0674 294.994 40.6436 295.983 39.7959C296.972 38.9482 297.467 37.9694 297.467 36.8594C297.467 35.8503 297.093 34.8411 296.347 33.832C295.6 32.8229 293.955 31.279 291.412 29.2002C286.568 25.2445 283.44 22.1969 282.027 20.0576C280.615 17.8981 279.908 15.7487 279.908 13.6094C279.908 10.5215 281.079 7.8776 283.42 5.67773C285.781 3.45768 288.688 2.34766 292.139 2.34766C294.359 2.34766 296.468 2.8623 298.466 3.8916C300.484 4.9209 302.664 6.79785 305.005 9.52246ZM309.546 3.46777H334.158V11.8232H326.045V48H317.447V11.8232H309.546V3.46777ZM339.668 3.46777H348.175V32.2881C348.175 34.7705 348.387 36.5264 348.811 37.5557C349.255 38.585 349.971 39.4124 350.96 40.0381C351.969 40.6436 353.18 40.9463 354.593 40.9463C356.086 40.9463 357.368 40.6032 358.438 39.917C359.527 39.2308 360.274 38.363 360.678 37.3135C361.102 36.2438 361.313 34.2155 361.313 31.2285V3.46777H369.82V30.0176C369.82 34.498 369.568 37.6061 369.063 39.3418C368.559 41.0775 367.59 42.7526 366.157 44.3672C364.744 45.9818 363.11 47.1826 361.253 47.9697C359.396 48.7367 357.237 49.1201 354.774 49.1201C351.545 49.1201 348.73 48.3835 346.328 46.9102C343.947 45.4167 342.241 43.5599 341.212 41.3398C340.183 39.0996 339.668 35.3255 339.668 30.0176V3.46777ZM379.72 3.46777H389.771C396.249 3.46777 401.062 4.27507 404.211 5.88965C407.359 7.48405 409.953 10.0876 411.991 13.7002C414.03 17.3128 415.049 21.5309 415.049 26.3545C415.049 29.7855 414.474 32.944 413.323 35.8301C412.193 38.696 410.619 41.0775 408.601 42.9746C406.603 44.8717 404.433 46.1836 402.092 46.9102C399.751 47.6367 395.694 48 389.922 48H379.72V3.46777ZM388.166 11.6416V39.7051H392.102C395.977 39.7051 398.782 39.2611 400.518 38.373C402.273 37.485 403.706 35.9915 404.816 33.8926C405.926 31.7936 406.481 29.2103 406.481 26.1426C406.481 21.4199 405.16 17.7568 402.516 15.1533C400.134 12.8122 396.31 11.6416 391.042 11.6416H388.166ZM422.496 3.46777H430.912V48H422.496V3.46777ZM461.519 2.34766C467.815 2.34766 473.224 4.62826 477.745 9.18945C482.286 13.7507 484.557 19.3109 484.557 25.8701C484.557 32.3688 482.316 37.8685 477.836 42.3691C473.376 46.8698 467.957 49.1201 461.579 49.1201C454.899 49.1201 449.349 46.8092 444.929 42.1875C440.509 37.5658 438.299 32.0762 438.299 25.7188C438.299 21.4603 439.328 17.5449 441.387 13.9727C443.445 10.4004 446.271 7.57487 449.863 5.49609C453.476 3.39714 457.361 2.34766 461.519 2.34766ZM461.428 10.6426C457.311 10.6426 453.849 12.0755 451.044 14.9414C448.239 17.8073 446.836 21.4502 446.836 25.8701C446.836 30.7946 448.602 34.6898 452.134 37.5557C454.879 39.7959 458.027 40.916 461.579 40.916C465.595 40.916 469.016 39.4629 471.842 36.5566C474.667 33.6504 476.08 30.068 476.08 25.8096C476.08 21.5713 474.657 17.9889 471.812 15.0625C468.966 12.1159 465.505 10.6426 461.428 10.6426Z" fill="url(#paint0_linear_935_25)"/>
<path d="M46.0156 11.3086L40.082 16.9697C36.0456 12.7113 31.5046 10.582 26.459 10.582C22.2005 10.582 18.6081 12.0352 15.6816 14.9414C12.7754 17.8477 11.3223 21.43 11.3223 25.6885C11.3223 28.6553 11.9681 31.2891 13.2598 33.5898C14.5514 35.8906 16.3779 37.6969 18.7393 39.0088C21.1006 40.3206 23.7243 40.9766 26.6104 40.9766C29.0726 40.9766 31.3229 40.5225 33.3613 39.6143C35.3997 38.6859 37.64 37.0107 40.082 34.5889L45.834 40.583C42.5443 43.792 39.4362 46.0221 36.5098 47.2734C33.5833 48.5046 30.2432 49.1201 26.4893 49.1201C19.5667 49.1201 13.8955 46.9303 9.47561 42.5508C5.07581 38.151 2.87601 32.5202 2.87601 25.6582C2.87601 21.2181 3.87501 17.2725 5.87301 13.8213C7.89131 10.3701 10.7673 7.59505 14.501 5.49609C18.2549 3.39714 22.2913 2.34766 26.6104 2.34766C30.2835 2.34766 33.8154 3.12467 37.2061 4.67871C40.6169 6.23275 43.5534 8.44271 46.0156 11.3086ZM74.5029 2.34766C80.7998 2.34766 86.2087 4.62826 90.7295 9.18945C95.271 13.7507 97.541 19.3109 97.541 25.8701C97.541 32.3688 95.301 37.8685 90.8203 42.3691C86.36 46.8698 80.9411 49.1201 74.5635 49.1201C67.8831 49.1201 62.333 46.8092 57.9131 42.1875C53.4932 37.5658 51.2832 32.0762 51.2832 25.7188C51.2832 21.4603 52.3125 17.5449 54.3711 13.9727C56.4297 10.4004 59.2552 7.57487 62.8477 5.49609C66.4603 3.39714 70.3454 2.34766 74.5029 2.34766ZM74.4121 10.6426C70.2949 10.6426 66.8337 12.0755 64.0283 14.9414C61.223 17.8073 59.8203 21.4502 59.8203 25.8701C59.8203 30.7946 61.5863 34.6898 65.1182 37.5557C67.863 39.7959 71.0114 40.916 74.5635 40.916C78.5798 40.916 82.0007 39.4629 84.8262 36.5566C87.6517 33.6504 89.0645 30.068 89.0645 25.8096C89.0645 21.5713 87.6416 17.9889 84.7959 15.0625C81.9502 12.1159 78.4889 10.6426 74.4121 10.6426ZM106.108 3.46777H115.1C120.024 3.46777 123.526 3.91178 125.604 4.7998C127.703 5.66764 129.389 7.12077 130.66 9.15918C131.932 11.1976 132.567 13.6094 132.567 16.3945C132.567 19.321 131.861 21.7731 130.448 23.751C129.056 25.7087 126.947 27.1921 124.121 28.2012L134.656 48H125.393L115.372 29.1396H114.585V48H106.108V3.46777ZM114.585 20.875H117.249C119.953 20.875 121.81 20.5218 122.819 19.8154C123.849 19.109 124.363 17.9385 124.363 16.3037C124.363 15.335 124.111 14.4974 123.606 13.791C123.102 13.0645 122.426 12.5498 121.578 12.2471C120.73 11.9242 119.176 11.7627 116.916 11.7627H114.585V20.875ZM141.528 3.46777H149.642L168.744 32.7725V3.46777H177.221V48H169.077L150.005 18.7861V48H141.528V3.46777ZM187.423 3.46777H211.732V11.7627H195.839V19.8154H211.732V27.959H195.839V39.6748H211.732V48H187.423V3.46777ZM220.239 3.46777H229.23C234.155 3.46777 237.657 3.91178 239.735 4.7998C241.834 5.66764 243.52 7.12077 244.791 9.15918C246.062 11.1976 246.698 13.6094 246.698 16.3945C246.698 19.321 245.992 21.7731 244.579 23.751C243.187 25.7087 241.077 27.1921 238.252 28.2012L248.787 48H239.523L229.503 29.1396H228.716V48H220.239V3.46777ZM228.716 20.875H231.38C234.084 20.875 235.941 20.5218 236.95 19.8154C237.979 19.109 238.494 17.9385 238.494 16.3037C238.494 15.335 238.242 14.4974 237.737 13.791C237.233 13.0645 236.557 12.5498 235.709 12.2471C234.861 11.9242 233.307 11.7627 231.047 11.7627H228.716V20.875ZM255.871 27.7471H271.25V35.4365H255.871V27.7471ZM305.005 9.52246L298.738 15.0625C296.538 11.9948 294.298 10.4609 292.018 10.4609C290.908 10.4609 289.999 10.7637 289.293 11.3691C288.587 11.9544 288.233 12.6204 288.233 13.3672C288.233 14.1139 288.486 14.8203 288.99 15.4863C289.676 16.3743 291.745 18.2816 295.196 21.208C298.425 23.9124 300.383 25.6178 301.069 26.3242C302.785 28.0599 303.996 29.7249 304.702 31.3193C305.429 32.8936 305.792 34.6191 305.792 36.4961C305.792 40.1491 304.531 43.1663 302.008 45.5479C299.485 47.9294 296.195 49.1201 292.139 49.1201C288.97 49.1201 286.205 48.3431 283.844 46.7891C281.503 45.235 279.494 42.793 277.819 39.4629L284.934 35.1641C287.073 39.0996 289.535 41.0674 292.32 41.0674C293.773 41.0674 294.994 40.6436 295.983 39.7959C296.972 38.9482 297.467 37.9694 297.467 36.8594C297.467 35.8503 297.093 34.8411 296.347 33.832C295.6 32.8229 293.955 31.279 291.412 29.2002C286.568 25.2445 283.44 22.1969 282.027 20.0576C280.615 17.8981 279.908 15.7487 279.908 13.6094C279.908 10.5215 281.079 7.8776 283.42 5.67773C285.781 3.45768 288.688 2.34766 292.139 2.34766C294.359 2.34766 296.468 2.8623 298.466 3.8916C300.484 4.9209 302.664 6.79785 305.005 9.52246ZM309.546 3.46777H334.158V11.8232H326.045V48H317.447V11.8232H309.546V3.46777ZM339.668 3.46777H348.175V32.2881C348.175 34.7705 348.387 36.5264 348.811 37.5557C349.255 38.585 349.971 39.4124 350.96 40.0381C351.969 40.6436 353.18 40.9463 354.593 40.9463C356.086 40.9463 357.368 40.6032 358.438 39.917C359.527 39.2308 360.274 38.363 360.678 37.3135C361.102 36.2438 361.313 34.2155 361.313 31.2285V3.46777H369.82V30.0176C369.82 34.498 369.568 37.6061 369.063 39.3418C368.559 41.0775 367.59 42.7526 366.157 44.3672C364.744 45.9818 363.11 47.1826 361.253 47.9697C359.396 48.7367 357.237 49.1201 354.774 49.1201C351.545 49.1201 348.73 48.3835 346.328 46.9102C343.947 45.4167 342.241 43.5599 341.212 41.3398C340.183 39.0996 339.668 35.3255 339.668 30.0176V3.46777ZM379.72 3.46777H389.771C396.249 3.46777 401.062 4.27507 404.211 5.88965C407.359 7.48405 409.953 10.0876 411.991 13.7002C414.03 17.3128 415.049 21.5309 415.049 26.3545C415.049 29.7855 414.474 32.944 413.323 35.8301C412.193 38.696 410.619 41.0775 408.601 42.9746C406.603 44.8717 404.433 46.1836 402.092 46.9102C399.751 47.6367 395.694 48 389.922 48H379.72V3.46777ZM388.166 11.6416V39.7051H392.102C395.977 39.7051 398.782 39.2611 400.518 38.373C402.273 37.485 403.706 35.9915 404.816 33.8926C405.926 31.7936 406.481 29.2103 406.481 26.1426C406.481 21.4199 405.16 17.7568 402.516 15.1533C400.134 12.8122 396.31 11.6416 391.042 11.6416H388.166ZM422.496 3.46777H430.912V48H422.496V3.46777ZM461.519 2.34766C467.815 2.34766 473.224 4.62826 477.745 9.18945C482.286 13.7507 484.557 19.3109 484.557 25.8701C484.557 32.3688 482.316 37.8685 477.836 42.3691C473.376 46.8698 467.957 49.1201 461.579 49.1201C454.899 49.1201 449.349 46.8092 444.929 42.1875C440.509 37.5658 438.299 32.0762 438.299 25.7188C438.299 21.4603 439.328 17.5449 441.387 13.9727C443.445 10.4004 446.271 7.57487 449.863 5.49609C453.476 3.39714 457.361 2.34766 461.519 2.34766ZM461.428 10.6426C457.311 10.6426 453.849 12.0755 451.044 14.9414C448.239 17.8073 446.836 21.4502 446.836 25.8701C446.836 30.7946 448.602 34.6898 452.134 37.5557C454.879 39.7959 458.027 40.916 461.579 40.916C465.595 40.916 469.016 39.4629 471.842 36.5566C474.667 33.6504 476.08 30.068 476.08 25.8096C476.08 21.5713 474.657 17.9889 471.812 15.0625C468.966 12.1159 465.505 10.6426 461.428 10.6426Z" fill="url(#paint1_linear_935_25)" fill-opacity="0.2"/>
</g>
</g>
<defs>
<filter id="filter0_d_935_25" x="-7.12399" y="0.347656" width="501.681" height="66.7724" filterUnits="userSpaceOnUse" color-interpolation-filters="sRGB">
<feFlood flood-opacity="0" result="BackgroundImageFix"/>
<feColorMatrix in="SourceAlpha" type="matrix" values="0 0 0 0 0 0 0 0 0 0 0 0 0 0 0 0 0 0 127 0" result="hardAlpha"/>
<feOffset dy="8"/>
<feGaussianBlur stdDeviation="5"/>
<feColorMatrix type="matrix" values="0 0 0 0 0 0 0 0 0 0 0 0 0 0 0 0 0 0 0.5 0"/>
<feBlend mode="normal" in2="BackgroundImageFix" result="effect1_dropShadow_935_25"/>
<feBlend mode="normal" in="SourceGraphic" in2="effect1_dropShadow_935_25" result="shape"/>
</filter>
<linearGradient id="paint0_linear_935_25" x1="-21" y1="-58.5" x2="449" y2="92.9999" gradientUnits="userSpaceOnUse">
<stop offset="0.255208" stop-color="#EA6FEB"/>
<stop offset="1" stop-color="#EA7AF3" stop-opacity="0"/>
</linearGradient>
<linearGradient id="paint1_linear_935_25" x1="517" y1="59" x2="20.5" y2="-42" gradientUnits="userSpaceOnUse">
<stop stop-color="#0600FF"/>
<stop offset="1" stop-color="#0600FF" stop-opacity="0"/>
</linearGradient>
<clipPath id="clip0_935_25">
<rect width="491" height="65" fill="white"/>
</clipPath>
</defs>
</svg>
