<svg  viewBox="0 0 289 43" fill="none" xmlns="http://www.w3.org/2000/svg">
<g filter="url(#filter0_d_23_43)">
<path d="M32.9766 11.2871L29.627 14.4829C27.3483 12.0789 24.7848 10.877 21.9365 10.877C19.5326 10.877 17.5046 11.6973 15.8525 13.3379C14.2119 14.9785 13.3916 17.0008 13.3916 19.4048C13.3916 21.0796 13.7562 22.5664 14.4854 23.8652C15.2145 25.1641 16.2456 26.1838 17.5786 26.9243C18.9116 27.6649 20.3927 28.0352 22.022 28.0352C23.4119 28.0352 24.6823 27.7788 25.833 27.2661C26.9837 26.742 28.2484 25.7964 29.627 24.4292L32.874 27.813C31.0169 29.6245 29.2624 30.8835 27.6104 31.5898C25.9583 32.2848 24.0728 32.6323 21.9536 32.6323C18.0457 32.6323 14.8442 31.3962 12.3491 28.9238C9.8654 26.4401 8.62354 23.2614 8.62354 19.3877C8.62354 16.8812 9.1875 14.6538 10.3154 12.7056C11.4548 10.7573 13.0783 9.19076 15.186 8.00586C17.3052 6.82096 19.5838 6.22852 22.022 6.22852C24.0955 6.22852 26.0894 6.66715 28.0034 7.54443C29.9289 8.42171 31.5866 9.66927 32.9766 11.2871ZM49.0581 6.22852C52.6128 6.22852 55.6662 7.51595 58.2183 10.0908C60.7817 12.6657 62.0635 15.8045 62.0635 19.5073C62.0635 23.1759 60.7988 26.2806 58.2695 28.8213C55.7516 31.362 52.6925 32.6323 49.0923 32.6323C45.3211 32.6323 42.188 31.3278 39.6929 28.7188C37.1978 26.1097 35.9502 23.0107 35.9502 19.4219C35.9502 17.0179 36.5312 14.8076 37.6934 12.791C38.8555 10.7744 40.4505 9.17936 42.4785 8.00586C44.5179 6.82096 46.7111 6.22852 49.0581 6.22852ZM49.0068 10.9111C46.6826 10.9111 44.7287 11.7201 43.145 13.3379C41.5614 14.9557 40.7695 17.0122 40.7695 19.5073C40.7695 22.2873 41.7664 24.4862 43.7603 26.104C45.3097 27.3687 47.0871 28.001 49.0923 28.001C51.3595 28.001 53.2907 27.1807 54.8857 25.54C56.4808 23.8994 57.2783 21.8771 57.2783 19.4731C57.2783 17.0806 56.4751 15.0583 54.8687 13.4062C53.2622 11.7428 51.3083 10.9111 49.0068 10.9111ZM66.8999 6.86084H71.9756C74.7555 6.86084 76.7323 7.11149 77.9058 7.61279C79.0907 8.1027 80.042 8.92301 80.7598 10.0737C81.4775 11.2244 81.8364 12.5859 81.8364 14.1582C81.8364 15.8102 81.4377 17.1945 80.6401 18.311C79.854 19.4162 78.6634 20.2536 77.0684 20.8232L83.0156 32H77.7861L72.1294 21.353H71.6851V32H66.8999V6.86084ZM71.6851 16.6875H73.189C74.7157 16.6875 75.7638 16.4881 76.3335 16.0894C76.9146 15.6906 77.2051 15.0298 77.2051 14.1069C77.2051 13.5601 77.0627 13.0872 76.7778 12.6885C76.493 12.2783 76.1113 11.9878 75.6328 11.8169C75.1543 11.6346 74.277 11.5435 73.001 11.5435H71.6851V16.6875ZM86.895 6.86084H91.4751L102.259 23.4038V6.86084H107.044V32H102.447L91.6802 15.5083V32H86.895V6.86084ZM112.803 6.86084H126.526V11.5435H117.554V16.0894H126.526V20.6865H117.554V27.3003H126.526V32H112.803V6.86084ZM131.329 6.86084H136.404C139.184 6.86084 141.161 7.11149 142.334 7.61279C143.519 8.1027 144.471 8.92301 145.188 10.0737C145.906 11.2244 146.265 12.5859 146.265 14.1582C146.265 15.8102 145.866 17.1945 145.069 18.311C144.283 19.4162 143.092 20.2536 141.497 20.8232L147.444 32H142.215L136.558 21.353H136.114V32H131.329V6.86084ZM136.114 16.6875H137.618C139.144 16.6875 140.193 16.4881 140.762 16.0894C141.343 15.6906 141.634 15.0298 141.634 14.1069C141.634 13.5601 141.491 13.0872 141.207 12.6885C140.922 12.2783 140.54 11.9878 140.062 11.8169C139.583 11.6346 138.706 11.5435 137.43 11.5435H136.114V16.6875ZM151.443 20.5669H160.125V24.9077H151.443V20.5669ZM179.18 10.2788L175.643 13.4062C174.401 11.6745 173.136 10.8086 171.849 10.8086C171.222 10.8086 170.709 10.9795 170.311 11.3213C169.912 11.6517 169.712 12.0277 169.712 12.4492C169.712 12.8708 169.855 13.2695 170.14 13.6455C170.527 14.1468 171.695 15.2235 173.643 16.8755C175.466 18.4022 176.571 19.3649 176.958 19.7637C177.927 20.7435 178.611 21.6834 179.009 22.5835C179.419 23.4722 179.625 24.4463 179.625 25.5059C179.625 27.568 178.912 29.2713 177.488 30.6157C176.064 31.9601 174.207 32.6323 171.917 32.6323C170.128 32.6323 168.567 32.1937 167.234 31.3164C165.913 30.4391 164.779 29.0605 163.833 27.1807L167.85 24.7539C169.057 26.9756 170.447 28.0864 172.02 28.0864C172.84 28.0864 173.529 27.8472 174.087 27.3687C174.646 26.8901 174.925 26.3376 174.925 25.7109C174.925 25.1413 174.714 24.5716 174.292 24.002C173.871 23.4323 172.942 22.5607 171.507 21.3872C168.772 19.1541 167.007 17.4338 166.209 16.2261C165.411 15.007 165.013 13.7936 165.013 12.5859C165.013 10.8428 165.674 9.35026 166.995 8.1084C168.328 6.85514 169.969 6.22852 171.917 6.22852C173.17 6.22852 174.361 6.51904 175.489 7.1001C176.628 7.68115 177.859 8.74072 179.18 10.2788ZM181.744 6.86084H195.638V11.5776H191.058V32H186.204V11.5776H181.744V6.86084ZM198.748 6.86084H203.55V23.1304C203.55 24.5317 203.67 25.5229 203.909 26.104C204.16 26.6851 204.564 27.1522 205.123 27.5054C205.692 27.8472 206.376 28.0181 207.173 28.0181C208.016 28.0181 208.74 27.8244 209.344 27.437C209.959 27.0496 210.381 26.5597 210.608 25.9673C210.848 25.3634 210.967 24.2184 210.967 22.5322V6.86084H215.77V21.8486C215.77 24.3779 215.627 26.1325 215.342 27.1123C215.057 28.0921 214.511 29.0378 213.702 29.9492C212.904 30.8607 211.981 31.5386 210.933 31.9829C209.885 32.4159 208.666 32.6323 207.276 32.6323C205.453 32.6323 203.864 32.2165 202.508 31.3848C201.163 30.5417 200.201 29.4935 199.62 28.2402C199.039 26.9756 198.748 24.8451 198.748 21.8486V6.86084ZM221.358 6.86084H227.032C230.689 6.86084 233.406 7.31657 235.184 8.22803C236.961 9.12809 238.425 10.5978 239.576 12.6372C240.726 14.6766 241.302 17.0578 241.302 19.7808C241.302 21.7176 240.977 23.5007 240.328 25.1299C239.69 26.7477 238.801 28.0921 237.662 29.1631C236.534 30.234 235.309 30.9746 233.987 31.3848C232.666 31.7949 230.376 32 227.117 32H221.358V6.86084ZM226.126 11.4751V27.3174H228.348C230.535 27.3174 232.119 27.0667 233.099 26.5654C234.09 26.0641 234.899 25.221 235.525 24.0361C236.152 22.8512 236.465 21.3929 236.465 19.6611C236.465 16.9951 235.719 14.9272 234.227 13.4575C232.882 12.1359 230.723 11.4751 227.75 11.4751H226.126ZM245.506 6.86084H250.257V32H245.506V6.86084ZM267.535 6.22852C271.089 6.22852 274.143 7.51595 276.695 10.0908C279.258 12.6657 280.54 15.8045 280.54 19.5073C280.54 23.1759 279.275 26.2806 276.746 28.8213C274.228 31.362 271.169 32.6323 267.569 32.6323C263.798 32.6323 260.665 31.3278 258.169 28.7188C255.674 26.1097 254.427 23.0107 254.427 19.4219C254.427 17.0179 255.008 14.8076 256.17 12.791C257.332 10.7744 258.927 9.17936 260.955 8.00586C262.994 6.82096 265.188 6.22852 267.535 6.22852ZM267.483 10.9111C265.159 10.9111 263.205 11.7201 261.622 13.3379C260.038 14.9557 259.246 17.0122 259.246 19.5073C259.246 22.2873 260.243 24.4862 262.237 26.104C263.786 27.3687 265.564 28.001 267.569 28.001C269.836 28.001 271.767 27.1807 273.362 25.54C274.957 23.8994 275.755 21.8771 275.755 19.4731C275.755 17.0806 274.952 15.0583 273.345 13.4062C271.739 11.7428 269.785 10.9111 267.483 10.9111Z" fill="#00B2FF"/>
<path d="M32.9766 11.2871L29.627 14.4829C27.3483 12.0789 24.7848 10.877 21.9365 10.877C19.5326 10.877 17.5046 11.6973 15.8525 13.3379C14.2119 14.9785 13.3916 17.0008 13.3916 19.4048C13.3916 21.0796 13.7562 22.5664 14.4854 23.8652C15.2145 25.1641 16.2456 26.1838 17.5786 26.9243C18.9116 27.6649 20.3927 28.0352 22.022 28.0352C23.4119 28.0352 24.6823 27.7788 25.833 27.2661C26.9837 26.742 28.2484 25.7964 29.627 24.4292L32.874 27.813C31.0169 29.6245 29.2624 30.8835 27.6104 31.5898C25.9583 32.2848 24.0728 32.6323 21.9536 32.6323C18.0457 32.6323 14.8442 31.3962 12.3491 28.9238C9.8654 26.4401 8.62354 23.2614 8.62354 19.3877C8.62354 16.8812 9.1875 14.6538 10.3154 12.7056C11.4548 10.7573 13.0783 9.19076 15.186 8.00586C17.3052 6.82096 19.5838 6.22852 22.022 6.22852C24.0955 6.22852 26.0894 6.66715 28.0034 7.54443C29.9289 8.42171 31.5866 9.66927 32.9766 11.2871ZM49.0581 6.22852C52.6128 6.22852 55.6662 7.51595 58.2183 10.0908C60.7817 12.6657 62.0635 15.8045 62.0635 19.5073C62.0635 23.1759 60.7988 26.2806 58.2695 28.8213C55.7516 31.362 52.6925 32.6323 49.0923 32.6323C45.3211 32.6323 42.188 31.3278 39.6929 28.7188C37.1978 26.1097 35.9502 23.0107 35.9502 19.4219C35.9502 17.0179 36.5312 14.8076 37.6934 12.791C38.8555 10.7744 40.4505 9.17936 42.4785 8.00586C44.5179 6.82096 46.7111 6.22852 49.0581 6.22852ZM49.0068 10.9111C46.6826 10.9111 44.7287 11.7201 43.145 13.3379C41.5614 14.9557 40.7695 17.0122 40.7695 19.5073C40.7695 22.2873 41.7664 24.4862 43.7603 26.104C45.3097 27.3687 47.0871 28.001 49.0923 28.001C51.3595 28.001 53.2907 27.1807 54.8857 25.54C56.4808 23.8994 57.2783 21.8771 57.2783 19.4731C57.2783 17.0806 56.4751 15.0583 54.8687 13.4062C53.2622 11.7428 51.3083 10.9111 49.0068 10.9111ZM66.8999 6.86084H71.9756C74.7555 6.86084 76.7323 7.11149 77.9058 7.61279C79.0907 8.1027 80.042 8.92301 80.7598 10.0737C81.4775 11.2244 81.8364 12.5859 81.8364 14.1582C81.8364 15.8102 81.4377 17.1945 80.6401 18.311C79.854 19.4162 78.6634 20.2536 77.0684 20.8232L83.0156 32H77.7861L72.1294 21.353H71.6851V32H66.8999V6.86084ZM71.6851 16.6875H73.189C74.7157 16.6875 75.7638 16.4881 76.3335 16.0894C76.9146 15.6906 77.2051 15.0298 77.2051 14.1069C77.2051 13.5601 77.0627 13.0872 76.7778 12.6885C76.493 12.2783 76.1113 11.9878 75.6328 11.8169C75.1543 11.6346 74.277 11.5435 73.001 11.5435H71.6851V16.6875ZM86.895 6.86084H91.4751L102.259 23.4038V6.86084H107.044V32H102.447L91.6802 15.5083V32H86.895V6.86084ZM112.803 6.86084H126.526V11.5435H117.554V16.0894H126.526V20.6865H117.554V27.3003H126.526V32H112.803V6.86084ZM131.329 6.86084H136.404C139.184 6.86084 141.161 7.11149 142.334 7.61279C143.519 8.1027 144.471 8.92301 145.188 10.0737C145.906 11.2244 146.265 12.5859 146.265 14.1582C146.265 15.8102 145.866 17.1945 145.069 18.311C144.283 19.4162 143.092 20.2536 141.497 20.8232L147.444 32H142.215L136.558 21.353H136.114V32H131.329V6.86084ZM136.114 16.6875H137.618C139.144 16.6875 140.193 16.4881 140.762 16.0894C141.343 15.6906 141.634 15.0298 141.634 14.1069C141.634 13.5601 141.491 13.0872 141.207 12.6885C140.922 12.2783 140.54 11.9878 140.062 11.8169C139.583 11.6346 138.706 11.5435 137.43 11.5435H136.114V16.6875ZM151.443 20.5669H160.125V24.9077H151.443V20.5669ZM179.18 10.2788L175.643 13.4062C174.401 11.6745 173.136 10.8086 171.849 10.8086C171.222 10.8086 170.709 10.9795 170.311 11.3213C169.912 11.6517 169.712 12.0277 169.712 12.4492C169.712 12.8708 169.855 13.2695 170.14 13.6455C170.527 14.1468 171.695 15.2235 173.643 16.8755C175.466 18.4022 176.571 19.3649 176.958 19.7637C177.927 20.7435 178.611 21.6834 179.009 22.5835C179.419 23.4722 179.625 24.4463 179.625 25.5059C179.625 27.568 178.912 29.2713 177.488 30.6157C176.064 31.9601 174.207 32.6323 171.917 32.6323C170.128 32.6323 168.567 32.1937 167.234 31.3164C165.913 30.4391 164.779 29.0605 163.833 27.1807L167.85 24.7539C169.057 26.9756 170.447 28.0864 172.02 28.0864C172.84 28.0864 173.529 27.8472 174.087 27.3687C174.646 26.8901 174.925 26.3376 174.925 25.7109C174.925 25.1413 174.714 24.5716 174.292 24.002C173.871 23.4323 172.942 22.5607 171.507 21.3872C168.772 19.1541 167.007 17.4338 166.209 16.2261C165.411 15.007 165.013 13.7936 165.013 12.5859C165.013 10.8428 165.674 9.35026 166.995 8.1084C168.328 6.85514 169.969 6.22852 171.917 6.22852C173.17 6.22852 174.361 6.51904 175.489 7.1001C176.628 7.68115 177.859 8.74072 179.18 10.2788ZM181.744 6.86084H195.638V11.5776H191.058V32H186.204V11.5776H181.744V6.86084ZM198.748 6.86084H203.55V23.1304C203.55 24.5317 203.67 25.5229 203.909 26.104C204.16 26.6851 204.564 27.1522 205.123 27.5054C205.692 27.8472 206.376 28.0181 207.173 28.0181C208.016 28.0181 208.74 27.8244 209.344 27.437C209.959 27.0496 210.381 26.5597 210.608 25.9673C210.848 25.3634 210.967 24.2184 210.967 22.5322V6.86084H215.77V21.8486C215.77 24.3779 215.627 26.1325 215.342 27.1123C215.057 28.0921 214.511 29.0378 213.702 29.9492C212.904 30.8607 211.981 31.5386 210.933 31.9829C209.885 32.4159 208.666 32.6323 207.276 32.6323C205.453 32.6323 203.864 32.2165 202.508 31.3848C201.163 30.5417 200.201 29.4935 199.62 28.2402C199.039 26.9756 198.748 24.8451 198.748 21.8486V6.86084ZM221.358 6.86084H227.032C230.689 6.86084 233.406 7.31657 235.184 8.22803C236.961 9.12809 238.425 10.5978 239.576 12.6372C240.726 14.6766 241.302 17.0578 241.302 19.7808C241.302 21.7176 240.977 23.5007 240.328 25.1299C239.69 26.7477 238.801 28.0921 237.662 29.1631C236.534 30.234 235.309 30.9746 233.987 31.3848C232.666 31.7949 230.376 32 227.117 32H221.358V6.86084ZM226.126 11.4751V27.3174H228.348C230.535 27.3174 232.119 27.0667 233.099 26.5654C234.09 26.0641 234.899 25.221 235.525 24.0361C236.152 22.8512 236.465 21.3929 236.465 19.6611C236.465 16.9951 235.719 14.9272 234.227 13.4575C232.882 12.1359 230.723 11.4751 227.75 11.4751H226.126ZM245.506 6.86084H250.257V32H245.506V6.86084ZM267.535 6.22852C271.089 6.22852 274.143 7.51595 276.695 10.0908C279.258 12.6657 280.54 15.8045 280.54 19.5073C280.54 23.1759 279.275 26.2806 276.746 28.8213C274.228 31.362 271.169 32.6323 267.569 32.6323C263.798 32.6323 260.665 31.3278 258.169 28.7188C255.674 26.1097 254.427 23.0107 254.427 19.4219C254.427 17.0179 255.008 14.8076 256.17 12.791C257.332 10.7744 258.927 9.17936 260.955 8.00586C262.994 6.82096 265.188 6.22852 267.535 6.22852ZM267.483 10.9111C265.159 10.9111 263.205 11.7201 261.622 13.3379C260.038 14.9557 259.246 17.0122 259.246 19.5073C259.246 22.2873 260.243 24.4862 262.237 26.104C263.786 27.3687 265.564 28.001 267.569 28.001C269.836 28.001 271.767 27.1807 273.362 25.54C274.957 23.8994 275.755 21.8771 275.755 19.4731C275.755 17.0806 274.952 15.0583 273.345 13.4062C271.739 11.7428 269.785 10.9111 267.483 10.9111Z" fill="url(#paint0_linear_23_43)"/>
<path d="M32.9766 11.2871L29.627 14.4829C27.3483 12.0789 24.7848 10.877 21.9365 10.877C19.5326 10.877 17.5046 11.6973 15.8525 13.3379C14.2119 14.9785 13.3916 17.0008 13.3916 19.4048C13.3916 21.0796 13.7562 22.5664 14.4854 23.8652C15.2145 25.1641 16.2456 26.1838 17.5786 26.9243C18.9116 27.6649 20.3927 28.0352 22.022 28.0352C23.4119 28.0352 24.6823 27.7788 25.833 27.2661C26.9837 26.742 28.2484 25.7964 29.627 24.4292L32.874 27.813C31.0169 29.6245 29.2624 30.8835 27.6104 31.5898C25.9583 32.2848 24.0728 32.6323 21.9536 32.6323C18.0457 32.6323 14.8442 31.3962 12.3491 28.9238C9.8654 26.4401 8.62354 23.2614 8.62354 19.3877C8.62354 16.8812 9.1875 14.6538 10.3154 12.7056C11.4548 10.7573 13.0783 9.19076 15.186 8.00586C17.3052 6.82096 19.5838 6.22852 22.022 6.22852C24.0955 6.22852 26.0894 6.66715 28.0034 7.54443C29.9289 8.42171 31.5866 9.66927 32.9766 11.2871ZM49.0581 6.22852C52.6128 6.22852 55.6662 7.51595 58.2183 10.0908C60.7817 12.6657 62.0635 15.8045 62.0635 19.5073C62.0635 23.1759 60.7988 26.2806 58.2695 28.8213C55.7516 31.362 52.6925 32.6323 49.0923 32.6323C45.3211 32.6323 42.188 31.3278 39.6929 28.7188C37.1978 26.1097 35.9502 23.0107 35.9502 19.4219C35.9502 17.0179 36.5312 14.8076 37.6934 12.791C38.8555 10.7744 40.4505 9.17936 42.4785 8.00586C44.5179 6.82096 46.7111 6.22852 49.0581 6.22852ZM49.0068 10.9111C46.6826 10.9111 44.7287 11.7201 43.145 13.3379C41.5614 14.9557 40.7695 17.0122 40.7695 19.5073C40.7695 22.2873 41.7664 24.4862 43.7603 26.104C45.3097 27.3687 47.0871 28.001 49.0923 28.001C51.3595 28.001 53.2907 27.1807 54.8857 25.54C56.4808 23.8994 57.2783 21.8771 57.2783 19.4731C57.2783 17.0806 56.4751 15.0583 54.8687 13.4062C53.2622 11.7428 51.3083 10.9111 49.0068 10.9111ZM66.8999 6.86084H71.9756C74.7555 6.86084 76.7323 7.11149 77.9058 7.61279C79.0907 8.1027 80.042 8.92301 80.7598 10.0737C81.4775 11.2244 81.8364 12.5859 81.8364 14.1582C81.8364 15.8102 81.4377 17.1945 80.6401 18.311C79.854 19.4162 78.6634 20.2536 77.0684 20.8232L83.0156 32H77.7861L72.1294 21.353H71.6851V32H66.8999V6.86084ZM71.6851 16.6875H73.189C74.7157 16.6875 75.7638 16.4881 76.3335 16.0894C76.9146 15.6906 77.2051 15.0298 77.2051 14.1069C77.2051 13.5601 77.0627 13.0872 76.7778 12.6885C76.493 12.2783 76.1113 11.9878 75.6328 11.8169C75.1543 11.6346 74.277 11.5435 73.001 11.5435H71.6851V16.6875ZM86.895 6.86084H91.4751L102.259 23.4038V6.86084H107.044V32H102.447L91.6802 15.5083V32H86.895V6.86084ZM112.803 6.86084H126.526V11.5435H117.554V16.0894H126.526V20.6865H117.554V27.3003H126.526V32H112.803V6.86084ZM131.329 6.86084H136.404C139.184 6.86084 141.161 7.11149 142.334 7.61279C143.519 8.1027 144.471 8.92301 145.188 10.0737C145.906 11.2244 146.265 12.5859 146.265 14.1582C146.265 15.8102 145.866 17.1945 145.069 18.311C144.283 19.4162 143.092 20.2536 141.497 20.8232L147.444 32H142.215L136.558 21.353H136.114V32H131.329V6.86084ZM136.114 16.6875H137.618C139.144 16.6875 140.193 16.4881 140.762 16.0894C141.343 15.6906 141.634 15.0298 141.634 14.1069C141.634 13.5601 141.491 13.0872 141.207 12.6885C140.922 12.2783 140.54 11.9878 140.062 11.8169C139.583 11.6346 138.706 11.5435 137.43 11.5435H136.114V16.6875ZM151.443 20.5669H160.125V24.9077H151.443V20.5669ZM179.18 10.2788L175.643 13.4062C174.401 11.6745 173.136 10.8086 171.849 10.8086C171.222 10.8086 170.709 10.9795 170.311 11.3213C169.912 11.6517 169.712 12.0277 169.712 12.4492C169.712 12.8708 169.855 13.2695 170.14 13.6455C170.527 14.1468 171.695 15.2235 173.643 16.8755C175.466 18.4022 176.571 19.3649 176.958 19.7637C177.927 20.7435 178.611 21.6834 179.009 22.5835C179.419 23.4722 179.625 24.4463 179.625 25.5059C179.625 27.568 178.912 29.2713 177.488 30.6157C176.064 31.9601 174.207 32.6323 171.917 32.6323C170.128 32.6323 168.567 32.1937 167.234 31.3164C165.913 30.4391 164.779 29.0605 163.833 27.1807L167.85 24.7539C169.057 26.9756 170.447 28.0864 172.02 28.0864C172.84 28.0864 173.529 27.8472 174.087 27.3687C174.646 26.8901 174.925 26.3376 174.925 25.7109C174.925 25.1413 174.714 24.5716 174.292 24.002C173.871 23.4323 172.942 22.5607 171.507 21.3872C168.772 19.1541 167.007 17.4338 166.209 16.2261C165.411 15.007 165.013 13.7936 165.013 12.5859C165.013 10.8428 165.674 9.35026 166.995 8.1084C168.328 6.85514 169.969 6.22852 171.917 6.22852C173.17 6.22852 174.361 6.51904 175.489 7.1001C176.628 7.68115 177.859 8.74072 179.18 10.2788ZM181.744 6.86084H195.638V11.5776H191.058V32H186.204V11.5776H181.744V6.86084ZM198.748 6.86084H203.55V23.1304C203.55 24.5317 203.67 25.5229 203.909 26.104C204.16 26.6851 204.564 27.1522 205.123 27.5054C205.692 27.8472 206.376 28.0181 207.173 28.0181C208.016 28.0181 208.74 27.8244 209.344 27.437C209.959 27.0496 210.381 26.5597 210.608 25.9673C210.848 25.3634 210.967 24.2184 210.967 22.5322V6.86084H215.77V21.8486C215.77 24.3779 215.627 26.1325 215.342 27.1123C215.057 28.0921 214.511 29.0378 213.702 29.9492C212.904 30.8607 211.981 31.5386 210.933 31.9829C209.885 32.4159 208.666 32.6323 207.276 32.6323C205.453 32.6323 203.864 32.2165 202.508 31.3848C201.163 30.5417 200.201 29.4935 199.62 28.2402C199.039 26.9756 198.748 24.8451 198.748 21.8486V6.86084ZM221.358 6.86084H227.032C230.689 6.86084 233.406 7.31657 235.184 8.22803C236.961 9.12809 238.425 10.5978 239.576 12.6372C240.726 14.6766 241.302 17.0578 241.302 19.7808C241.302 21.7176 240.977 23.5007 240.328 25.1299C239.69 26.7477 238.801 28.0921 237.662 29.1631C236.534 30.234 235.309 30.9746 233.987 31.3848C232.666 31.7949 230.376 32 227.117 32H221.358V6.86084ZM226.126 11.4751V27.3174H228.348C230.535 27.3174 232.119 27.0667 233.099 26.5654C234.09 26.0641 234.899 25.221 235.525 24.0361C236.152 22.8512 236.465 21.3929 236.465 19.6611C236.465 16.9951 235.719 14.9272 234.227 13.4575C232.882 12.1359 230.723 11.4751 227.75 11.4751H226.126ZM245.506 6.86084H250.257V32H245.506V6.86084ZM267.535 6.22852C271.089 6.22852 274.143 7.51595 276.695 10.0908C279.258 12.6657 280.54 15.8045 280.54 19.5073C280.54 23.1759 279.275 26.2806 276.746 28.8213C274.228 31.362 271.169 32.6323 267.569 32.6323C263.798 32.6323 260.665 31.3278 258.169 28.7188C255.674 26.1097 254.427 23.0107 254.427 19.4219C254.427 17.0179 255.008 14.8076 256.17 12.791C257.332 10.7744 258.927 9.17936 260.955 8.00586C262.994 6.82096 265.188 6.22852 267.535 6.22852ZM267.483 10.9111C265.159 10.9111 263.205 11.7201 261.622 13.3379C260.038 14.9557 259.246 17.0122 259.246 19.5073C259.246 22.2873 260.243 24.4862 262.237 26.104C263.786 27.3687 265.564 28.001 267.569 28.001C269.836 28.001 271.767 27.1807 273.362 25.54C274.957 23.8994 275.755 21.8771 275.755 19.4731C275.755 17.0806 274.952 15.0583 273.345 13.4062C271.739 11.7428 269.785 10.9111 267.483 10.9111Z" fill="url(#paint1_linear_23_43)" fill-opacity="0.2"/>
</g>
<defs>
<filter id="filter0_d_23_43" x="0.623535" y="0.228516" width="287.917" height="42.4038" filterUnits="userSpaceOnUse" color-interpolation-filters="sRGB">
<feFlood flood-opacity="0" result="BackgroundImageFix"/>
<feColorMatrix in="SourceAlpha" type="matrix" values="0 0 0 0 0 0 0 0 0 0 0 0 0 0 0 0 0 0 127 0" result="hardAlpha"/>
<feOffset dy="2"/>
<feGaussianBlur stdDeviation="4"/>
<feColorMatrix type="matrix" values="0 0 0 0 0 0 0 0 0 0 0 0 0 0 0 0 0 0 0.8 0"/>
<feBlend mode="normal" in2="BackgroundImageFix" result="effect1_dropShadow_23_43"/>
<feBlend mode="normal" in="SourceGraphic" in2="effect1_dropShadow_23_43" result="shape"/>
</filter>
<linearGradient id="paint0_linear_23_43" x1="-4.85484" y1="-30.3068" x2="264.362" y2="49.5262" gradientUnits="userSpaceOnUse">
<stop offset="0.255208" stop-color="#EA6FEB"/>
<stop offset="1" stop-color="#EA7AF3" stop-opacity="0"/>
</linearGradient>
<linearGradient id="paint1_linear_23_43" x1="298.855" y1="41.7954" x2="16.8504" y2="-10.979" gradientUnits="userSpaceOnUse">
<stop stop-color="#0600FF"/>
<stop offset="1" stop-color="#0600FF" stop-opacity="0"/>
</linearGradient>
</defs>
</svg>
